<svg width="89" height="99" viewBox="0 0 89 99" fill="none" xmlns="http://www.w3.org/2000/svg">
<path d="M24.3359 23.2031C24.3359 23.968 24.132 24.7157 23.75 25.3516C23.368 25.9876 22.8251 26.4832 22.1898 26.7759C21.5545 27.0686 20.8555 27.1452 20.1811 26.996C19.5067 26.8468 18.8873 26.4785 18.4011 25.9376C17.9149 25.3968 17.5838 24.7077 17.4496 23.9576C17.3155 23.2074 17.3843 22.4299 17.6475 21.7232C17.9106 21.0166 18.3562 20.4126 18.9279 19.9877C19.4996 19.5627 20.1718 19.3359 20.8594 19.3359C21.7814 19.3359 22.6657 19.7434 23.3177 20.4686C23.9697 21.1939 24.3359 22.1775 24.3359 23.2031ZM44.5 19.3359C43.8124 19.3359 43.1402 19.5627 42.5685 19.9877C41.9968 20.4126 41.5512 21.0166 41.2881 21.7232C41.0249 22.4299 40.9561 23.2074 41.0902 23.9576C41.2244 24.7077 41.5555 25.3968 42.0417 25.9376C42.5279 26.4785 43.1474 26.8468 43.8218 26.996C44.4961 27.1452 45.1952 27.0686 45.8304 26.7759C46.4657 26.4832 47.0086 25.9876 47.3907 25.3516C47.7727 24.7157 47.9766 23.968 47.9766 23.2031C47.9766 22.1775 47.6103 21.1939 46.9583 20.4686C46.3063 19.7434 45.422 19.3359 44.5 19.3359ZM68.1406 27.0703C68.8282 27.0703 69.5004 26.8435 70.0721 26.4186C70.6438 25.9936 71.0894 25.3897 71.3526 24.683C71.6157 23.9764 71.6845 23.1988 71.5504 22.4487C71.4162 21.6985 71.0851 21.0094 70.5989 20.4686C70.1127 19.9278 69.4933 19.5595 68.8189 19.4102C68.1445 19.261 67.4455 19.3376 66.8102 19.6303C66.1749 19.923 65.632 20.4187 65.25 21.0546C64.868 21.6906 64.6641 22.4383 64.6641 23.2031C64.6641 24.2288 65.0303 25.2124 65.6823 25.9376C66.3343 26.6629 67.2186 27.0703 68.1406 27.0703ZM20.8594 45.6328C20.1718 45.6328 19.4996 45.8596 18.9279 46.2846C18.3562 46.7095 17.9106 47.3135 17.6475 48.0201C17.3843 48.7267 17.3155 49.5043 17.4496 50.2545C17.5838 51.0046 17.9149 51.6937 18.4011 52.2345C18.8873 52.7754 19.5067 53.1437 20.1811 53.2929C20.8555 53.4421 21.5545 53.3655 22.1898 53.0728C22.8251 52.7801 23.368 52.2845 23.75 51.6485C24.132 51.0125 24.3359 50.2649 24.3359 49.5C24.3359 48.4744 23.9697 47.4907 23.3177 46.7655C22.6657 46.0403 21.7814 45.6328 20.8594 45.6328ZM44.5 45.6328C43.8124 45.6328 43.1402 45.8596 42.5685 46.2846C41.9968 46.7095 41.5512 47.3135 41.2881 48.0201C41.0249 48.7267 40.9561 49.5043 41.0902 50.2545C41.2244 51.0046 41.5555 51.6937 42.0417 52.2345C42.5279 52.7754 43.1474 53.1437 43.8218 53.2929C44.4961 53.4421 45.1952 53.3655 45.8304 53.0728C46.4657 52.7801 47.0086 52.2845 47.3907 51.6485C47.7727 51.0125 47.9766 50.2649 47.9766 49.5C47.9766 48.4744 47.6103 47.4907 46.9583 46.7655C46.3063 46.0403 45.422 45.6328 44.5 45.6328ZM68.1406 45.6328C67.453 45.6328 66.7809 45.8596 66.2091 46.2846C65.6374 46.7095 65.1918 47.3135 64.9287 48.0201C64.6656 48.7267 64.5967 49.5043 64.7309 50.2545C64.865 51.0046 65.1961 51.6937 65.6823 52.2345C66.1685 52.7754 66.788 53.1437 67.4624 53.2929C68.1368 53.4421 68.8358 53.3655 69.471 53.0728C70.1063 52.7801 70.6493 52.2845 71.0313 51.6485C71.4133 51.0125 71.6172 50.2649 71.6172 49.5C71.6172 48.4744 71.2509 47.4907 70.5989 46.7655C69.9469 46.0403 69.0627 45.6328 68.1406 45.6328ZM20.8594 71.9297C20.1718 71.9297 19.4996 72.1565 18.9279 72.5814C18.3562 73.0064 17.9106 73.6103 17.6475 74.317C17.3843 75.0236 17.3155 75.8012 17.4496 76.5513C17.5838 77.3015 17.9149 77.9906 18.4011 78.5314C18.8873 79.0722 19.5067 79.4405 20.1811 79.5898C20.8555 79.739 21.5545 79.6624 22.1898 79.3697C22.8251 79.077 23.368 78.5813 23.75 77.9454C24.132 77.3094 24.3359 76.5617 24.3359 75.7969C24.3359 74.7712 23.9697 73.7876 23.3177 73.0624C22.6657 72.3371 21.7814 71.9297 20.8594 71.9297ZM44.5 71.9297C43.8124 71.9297 43.1402 72.1565 42.5685 72.5814C41.9968 73.0064 41.5512 73.6103 41.2881 74.317C41.0249 75.0236 40.9561 75.8012 41.0902 76.5513C41.2244 77.3015 41.5555 77.9906 42.0417 78.5314C42.5279 79.0722 43.1474 79.4405 43.8218 79.5898C44.4961 79.739 45.1952 79.6624 45.8304 79.3697C46.4657 79.077 47.0086 78.5813 47.3907 77.9454C47.7727 77.3094 47.9766 76.5617 47.9766 75.7969C47.9766 74.7712 47.6103 73.7876 46.9583 73.0624C46.3063 72.3371 45.422 71.9297 44.5 71.9297ZM68.1406 71.9297C67.453 71.9297 66.7809 72.1565 66.2091 72.5814C65.6374 73.0064 65.1918 73.6103 64.9287 74.317C64.6656 75.0236 64.5967 75.8012 64.7309 76.5513C64.865 77.3015 65.1961 77.9906 65.6823 78.5314C66.1685 79.0722 66.788 79.4405 67.4624 79.5898C68.1368 79.739 68.8358 79.6624 69.471 79.3697C70.1063 79.077 70.6493 78.5813 71.0313 77.9454C71.4133 77.3094 71.6172 76.5617 71.6172 75.7969C71.6172 74.7712 71.2509 73.7876 70.5989 73.0624C69.9469 72.3371 69.0627 71.9297 68.1406 71.9297Z" fill="black" fill-opacity="0.5"/>
</svg>
