<svg width="1512" height="881" viewBox="0 0 1512 881" fill="none" xmlns="http://www.w3.org/2000/svg">
<mask id="mask0_62_302" style="mask-type:luminance" maskUnits="userSpaceOnUse" x="139" y="0" width="1374" height="489">
<path d="M139 0H1513V489H139V0Z" fill="white"/>
</mask>
<g mask="url(#mask0_62_302)">
</g>
<mask id="mask1_62_302" style="mask-type:luminance" maskUnits="userSpaceOnUse" x="139" y="0" width="1374" height="489">
<path d="M139 0H1513V489H139V0Z" fill="white"/>
</mask>
<g mask="url(#mask1_62_302)">
<path d="M1390.81 204.458H1431.25L1451.47 239.745L1431.25 275.032H1390.81L1370.59 239.745L1390.81 204.458Z" fill="#DB0000" fill-opacity="0.04"/>
</g>
<mask id="mask2_62_302" style="mask-type:luminance" maskUnits="userSpaceOnUse" x="139" y="0" width="1374" height="489">
<path d="M139 0H1513V489H139V0Z" fill="white"/>
</mask>
<g mask="url(#mask2_62_302)">
<path d="M1344.77 52.9307H1376.93L1393 80.4339L1376.93 107.937H1344.77L1328.7 80.4339L1344.77 52.9307Z" fill="#DB0000" fill-opacity="0.04"/>
</g>
<mask id="mask3_62_302" style="mask-type:luminance" maskUnits="userSpaceOnUse" x="139" y="0" width="1374" height="489">
<path d="M139 0H1513V489H139V0Z" fill="white"/>
</mask>
<g mask="url(#mask3_62_302)">
<path d="M1475.1 334.19H1497.02L1507.98 353.39L1497.02 372.591H1475.1L1464.13 353.39L1475.1 334.19Z" fill="#DB0000" fill-opacity="0.04"/>
</g>
<mask id="mask4_62_302" style="mask-type:luminance" maskUnits="userSpaceOnUse" x="139" y="0" width="1374" height="489">
<path d="M139 0H1513V489H139V0Z" fill="white"/>
</mask>
<g mask="url(#mask4_62_302)">
<path d="M1365.97 287.486H1387.89L1398.85 306.687L1387.89 325.887H1365.97L1355 306.687L1365.97 287.486Z" fill="#DB0000" fill-opacity="0.04"/>
</g>
<mask id="mask5_62_302" style="mask-type:luminance" maskUnits="userSpaceOnUse" x="139" y="0" width="1374" height="489">
<path d="M139 0H1513V489H139V0Z" fill="white"/>
</mask>
<g mask="url(#mask5_62_302)">
<path d="M1459.75 56.0442H1511.39L1537.21 101.191L1511.39 146.338H1459.75L1433.93 101.191L1459.75 56.0442Z" fill="#DB0000" fill-opacity="0.04"/>
</g>
<mask id="mask6_62_302" style="mask-type:luminance" maskUnits="userSpaceOnUse" x="139" y="0" width="1374" height="489">
<path d="M139 0H1513V489H139V0Z" fill="white"/>
</mask>
<g mask="url(#mask6_62_302)">
<path d="M1419.8 -49.8171H1471.44L1497.26 -4.67055L1471.44 40.4764H1419.8L1393.98 -4.67055L1419.8 -49.8171Z" fill="#DB0000" fill-opacity="0.04"/>
</g>
<mask id="mask7_62_302" style="mask-type:luminance" maskUnits="userSpaceOnUse" x="139" y="0" width="1374" height="489">
<path d="M139 0H1513V489H139V0Z" fill="white"/>
</mask>
<g mask="url(#mask7_62_302)">
<path d="M1499.09 -31.6528H1572.79L1609.64 32.4216L1572.79 96.496H1499.09L1462.24 32.4216L1499.09 -31.6528Z" stroke="#B12030" stroke-opacity="0.03" stroke-width="10" stroke-miterlimit="10"/>
<path d="M1499.4 101.821C1498.04 101.821 1496.62 101.227 1495.65 100.262C1494.73 99.3385 1494.04 97.8238 1494.1 96.4975C1494.16 95.1209 1494.61 93.6928 1495.65 92.7331C1496.69 91.777 1497.97 91.1741 1499.4 91.1741C1500.76 91.1741 1502.19 91.7678 1503.15 92.7331C1504.07 93.6566 1504.77 95.1713 1504.71 96.4975C1504.64 97.8742 1504.19 99.3023 1503.15 100.262C1502.12 101.218 1500.84 101.821 1499.4 101.821Z" fill="#B12030" fill-opacity="0.03"/>
<path d="M1462.24 37.7455C1460.88 37.7455 1459.45 37.1518 1458.49 36.1865C1457.57 35.263 1456.88 33.7483 1456.94 32.4221C1457 31.0454 1457.45 29.6173 1458.49 28.6577C1459.53 27.7016 1460.8 27.0986 1462.24 27.0986C1463.6 27.0986 1465.03 27.6924 1465.99 28.6577C1466.91 29.5811 1467.6 31.0958 1467.54 32.4221C1467.48 33.7987 1467.03 35.2268 1465.99 36.1865C1464.95 37.1426 1463.68 37.7455 1462.24 37.7455Z" fill="#B12030" fill-opacity="0.03"/>
</g>
<mask id="mask8_62_302" style="mask-type:luminance" maskUnits="userSpaceOnUse" x="139" y="0" width="1374" height="489">
<path d="M139 0H1513V489H139V0Z" fill="white"/>
</mask>
<g mask="url(#mask8_62_302)">
<path d="M1412.13 129.799C1410.77 129.799 1409.34 129.205 1408.38 128.24C1407.46 127.316 1406.77 125.802 1406.83 124.475C1406.89 123.099 1407.34 121.671 1408.38 120.711C1409.42 119.755 1410.69 119.152 1412.13 119.152C1413.49 119.152 1414.92 119.746 1415.88 120.711C1416.8 121.634 1417.49 123.149 1417.43 124.475C1417.37 125.852 1416.92 127.28 1415.88 128.24C1414.84 129.196 1413.57 129.799 1412.13 129.799Z" fill="#B12030" fill-opacity="0.03"/>
<path d="M1448.98 60.4004H1522.68L1559.53 124.475L1522.68 188.55H1448.98L1412.13 124.475L1448.98 60.4004Z" stroke="#B12030" stroke-opacity="0.03" stroke-width="10" stroke-miterlimit="10"/>
<path d="M1449.29 65.7233C1447.93 65.7233 1446.5 65.1296 1445.54 64.1642C1444.62 63.2408 1443.93 61.7261 1443.99 60.3999C1444.05 59.0232 1444.5 57.5951 1445.54 56.6355C1446.58 55.6794 1447.85 55.0764 1449.29 55.0764C1450.65 55.0764 1452.08 55.6702 1453.04 56.6355C1453.96 57.5589 1454.65 59.0736 1454.59 60.3999C1454.53 61.7765 1454.08 63.2046 1453.04 64.1642C1452 65.1203 1450.73 65.7233 1449.29 65.7233Z" fill="#B12030" fill-opacity="0.03"/>
<path d="M1449.29 193.874C1447.93 193.874 1446.5 193.28 1445.54 192.315C1444.62 191.392 1443.93 189.877 1443.99 188.551C1444.05 187.174 1444.5 185.746 1445.54 184.786C1446.58 183.83 1447.85 183.227 1449.29 183.227C1450.65 183.227 1452.08 183.821 1453.04 184.786C1453.96 185.71 1454.65 187.224 1454.59 188.551C1454.53 189.927 1454.08 191.355 1453.04 192.315C1452 193.271 1450.73 193.874 1449.29 193.874Z" fill="#B12030" fill-opacity="0.03"/>
</g>
<mask id="mask9_62_302" style="mask-type:luminance" maskUnits="userSpaceOnUse" x="139" y="0" width="1374" height="489">
<path d="M139 0H1513V489H139V0Z" fill="white"/>
</mask>
<g mask="url(#mask9_62_302)">
<path d="M1352 9.32731C1350.64 9.32731 1349.21 8.73357 1348.25 7.76825C1347.33 6.84481 1346.64 5.33011 1346.7 4.00387C1346.76 2.62722 1347.21 1.19912 1348.25 0.23948C1349.29 -0.716611 1350.56 -1.31958 1352 -1.31958C1353.36 -1.31958 1354.79 -0.725838 1355.75 0.23948C1356.67 1.16292 1357.36 2.67762 1357.3 4.00387C1357.24 5.38051 1356.79 6.80861 1355.75 7.76825C1354.71 8.72434 1353.44 9.32731 1352 9.32731Z" fill="#B12030" fill-opacity="0.03"/>
<path d="M1375.41 -36.697H1422.22L1445.62 4.00072L1422.22 44.6988H1375.41L1352 4.00072L1375.41 -36.697Z" stroke="#B12030" stroke-opacity="0.03" stroke-width="10" stroke-miterlimit="10"/>
<path d="M1375.6 50.0226C1374.24 50.0226 1372.81 49.4289 1371.85 48.4636C1370.93 47.5401 1370.24 46.0254 1370.3 44.6992C1370.36 43.3225 1370.81 41.8944 1371.85 40.9348C1372.89 39.9787 1374.16 39.3757 1375.6 39.3757C1376.96 39.3757 1378.39 39.9695 1379.35 40.9348C1380.27 41.8582 1380.96 43.3729 1380.9 44.6992C1380.84 46.0758 1380.39 47.5039 1379.35 48.4636C1378.31 49.4193 1377.04 50.0226 1375.6 50.0226Z" fill="#B12030" fill-opacity="0.03"/>
<path d="M1422.02 50.0226C1420.66 50.0226 1419.23 49.4289 1418.27 48.4636C1417.35 47.5401 1416.66 46.0254 1416.72 44.6992C1416.78 43.3225 1417.23 41.8944 1418.27 40.9348C1419.31 39.9787 1420.58 39.3757 1422.02 39.3757C1423.38 39.3757 1424.81 39.9695 1425.77 40.9348C1426.69 41.8582 1427.38 43.3729 1427.32 44.6992C1427.26 46.0758 1426.81 47.5039 1425.77 48.4636C1424.73 49.4193 1423.46 50.0226 1422.02 50.0226Z" fill="#B12030" fill-opacity="0.03"/>
<path d="M1445.62 9.32731C1444.26 9.32731 1442.83 8.73357 1441.87 7.76825C1440.95 6.84481 1440.26 5.33011 1440.32 4.00387C1440.38 2.62722 1440.83 1.19912 1441.87 0.23948C1442.91 -0.716611 1444.18 -1.31958 1445.62 -1.31958C1446.98 -1.31958 1448.41 -0.725838 1449.37 0.23948C1450.29 1.16292 1450.98 2.67762 1450.92 4.00387C1450.86 5.38051 1450.41 6.80861 1449.37 7.76825C1448.33 8.72434 1447.06 9.32731 1445.62 9.32731Z" fill="#B12030" fill-opacity="0.03"/>
</g>
<mask id="mask10_62_302" style="mask-type:luminance" maskUnits="userSpaceOnUse" x="139" y="0" width="1374" height="489">
<path d="M139 0H1513V489H139V0Z" fill="white"/>
</mask>
<g mask="url(#mask10_62_302)">
<path d="M1418.58 265.56C1417.22 265.56 1415.79 264.967 1414.83 264.001C1413.91 263.078 1413.22 261.563 1413.28 260.237C1413.34 258.86 1413.79 257.432 1414.83 256.472C1415.87 255.516 1417.14 254.913 1418.58 254.913C1419.94 254.913 1421.37 255.507 1422.33 256.472C1423.25 257.396 1423.94 258.911 1423.88 260.237C1423.82 261.613 1423.37 263.042 1422.33 264.001C1421.29 264.957 1420.02 265.56 1418.58 265.56Z" fill="#B12030" fill-opacity="0.03"/>
<path d="M1445.26 213.855H1498.6L1525.28 260.236L1498.6 306.617H1445.26L1418.58 260.236L1445.26 213.855Z" stroke="#B12030" stroke-opacity="0.03" stroke-width="10" stroke-miterlimit="10"/>
<path d="M1445.48 219.18C1444.12 219.18 1442.7 218.586 1441.73 217.621C1440.81 216.698 1440.12 215.183 1440.18 213.857C1440.24 212.48 1440.69 211.052 1441.73 210.092C1442.77 209.136 1444.05 208.533 1445.48 208.533C1446.84 208.533 1448.27 209.127 1449.23 210.092C1450.15 211.016 1450.85 212.53 1450.79 213.857C1450.72 215.233 1450.27 216.661 1449.23 217.621C1448.2 218.577 1446.92 219.18 1445.48 219.18Z" fill="#B12030" fill-opacity="0.03"/>
<path d="M1445.48 311.943C1444.12 311.943 1442.7 311.349 1441.73 310.384C1440.81 309.46 1440.12 307.946 1440.18 306.619C1440.24 305.243 1440.69 303.815 1441.73 302.855C1442.77 301.899 1444.05 301.296 1445.48 301.296C1446.84 301.296 1448.27 301.89 1449.23 302.855C1450.15 303.778 1450.85 305.293 1450.79 306.619C1450.72 307.996 1450.27 309.424 1449.23 310.384C1448.2 311.339 1446.92 311.943 1445.48 311.943Z" fill="#B12030" fill-opacity="0.03"/>
<path d="M1498.38 219.18C1497.02 219.18 1495.59 218.586 1494.63 217.621C1493.71 216.698 1493.02 215.183 1493.08 213.857C1493.14 212.48 1493.59 211.052 1494.63 210.092C1495.67 209.136 1496.94 208.533 1498.38 208.533C1499.74 208.533 1501.17 209.127 1502.13 210.092C1503.05 211.016 1503.74 212.53 1503.68 213.857C1503.62 215.233 1503.17 216.661 1502.13 217.621C1501.09 218.577 1499.82 219.18 1498.38 219.18Z" fill="#B12030" fill-opacity="0.03"/>
<path d="M1498.38 311.943C1497.02 311.943 1495.59 311.349 1494.63 310.384C1493.71 309.46 1493.02 307.946 1493.08 306.619C1493.14 305.243 1493.59 303.815 1494.63 302.855C1495.67 301.899 1496.94 301.296 1498.38 301.296C1499.74 301.296 1501.17 301.89 1502.13 302.855C1503.05 303.778 1503.74 305.293 1503.68 306.619C1503.62 307.996 1503.17 309.424 1502.13 310.384C1501.09 311.339 1499.82 311.943 1498.38 311.943Z" fill="#B12030" fill-opacity="0.03"/>
</g>
<mask id="mask11_62_302" style="mask-type:luminance" maskUnits="userSpaceOnUse" x="139" y="0" width="1374" height="489">
<path d="M139 0H1513V489H139V0Z" fill="white"/>
</mask>
<g mask="url(#mask11_62_302)">
<path d="M1340.92 322.328C1339.25 322.328 1337.66 320.858 1337.74 319.134C1337.81 317.403 1339.13 315.939 1340.92 315.939C1342.58 315.939 1344.18 317.409 1344.1 319.134C1344.02 320.864 1342.7 322.328 1340.92 322.328Z" fill="#B12030" fill-opacity="0.03"/>
<path d="M1354.14 296.138H1380.59L1393.82 319.133L1380.59 342.127H1354.14L1340.92 319.133L1354.14 296.138Z" stroke="#B12030" stroke-opacity="0.03" stroke-width="6" stroke-miterlimit="10"/>
<path d="M1354.26 299.331C1352.59 299.331 1351 297.862 1351.07 296.137C1351.15 294.407 1352.47 292.943 1354.26 292.943C1355.92 292.943 1357.52 294.413 1357.44 296.137C1357.36 297.868 1356.04 299.331 1354.26 299.331Z" fill="#B12030" fill-opacity="0.03"/>
<path d="M1354.26 345.321C1352.59 345.321 1351 343.851 1351.07 342.127C1351.15 340.396 1352.47 338.933 1354.26 338.933C1355.92 338.933 1357.52 340.402 1357.44 342.127C1357.36 343.857 1356.04 345.321 1354.26 345.321Z" fill="#B12030" fill-opacity="0.03"/>
<path d="M1380.48 299.331C1378.82 299.331 1377.22 297.862 1377.3 296.137C1377.38 294.407 1378.7 292.943 1380.48 292.943C1382.15 292.943 1383.74 294.413 1383.66 296.137C1383.59 297.868 1382.26 299.331 1380.48 299.331Z" fill="#B12030" fill-opacity="0.03"/>
<path d="M1380.48 345.321C1378.82 345.321 1377.22 343.851 1377.3 342.127C1377.38 340.396 1378.7 338.933 1380.48 338.933C1382.15 338.933 1383.74 340.402 1383.66 342.127C1383.59 343.857 1382.26 345.321 1380.48 345.321Z" fill="#B12030" fill-opacity="0.03"/>
<path d="M1393.81 322.328C1392.15 322.328 1390.55 320.858 1390.63 319.134C1390.71 317.403 1392.03 315.939 1393.81 315.939C1395.48 315.939 1397.07 317.409 1396.99 319.134C1396.92 320.864 1395.6 322.328 1393.81 322.328Z" fill="#B12030" fill-opacity="0.03"/>
</g>
<mask id="mask12_62_302" style="mask-type:luminance" maskUnits="userSpaceOnUse" x="139" y="0" width="1374" height="489">
<path d="M139 0H1513V489H139V0Z" fill="white"/>
</mask>
<g mask="url(#mask12_62_302)">
<path d="M1245.82 127.671C1244.16 127.671 1242.56 126.202 1242.64 124.477C1242.72 122.747 1244.04 121.283 1245.82 121.283C1247.49 121.283 1249.08 122.752 1249 124.477C1248.93 126.208 1247.61 127.671 1245.82 127.671Z" fill="#B12030" fill-opacity="0.03"/>
<path d="M1259.05 101.486H1285.49L1298.72 124.48L1285.49 147.475H1259.05L1245.82 124.48L1259.05 101.486Z" stroke="#B12030" stroke-opacity="0.03" stroke-width="6" stroke-miterlimit="10"/>
<path d="M1259.16 104.68C1257.5 104.68 1255.9 103.211 1255.98 101.486C1256.06 99.7558 1257.38 98.2922 1259.16 98.2922C1260.83 98.2922 1262.42 99.7615 1262.34 101.486C1262.27 103.217 1260.94 104.68 1259.16 104.68Z" fill="#B12030" fill-opacity="0.03"/>
<path d="M1259.16 150.669C1257.5 150.669 1255.9 149.2 1255.98 147.475C1256.06 145.745 1257.38 144.281 1259.16 144.281C1260.83 144.281 1262.42 145.751 1262.34 147.475C1262.27 149.206 1260.94 150.669 1259.16 150.669Z" fill="#B12030" fill-opacity="0.03"/>
<path d="M1285.39 104.68C1283.72 104.68 1282.13 103.211 1282.2 101.486C1282.28 99.7558 1283.6 98.2922 1285.39 98.2922C1287.05 98.2922 1288.64 99.7615 1288.57 101.486C1288.49 103.217 1287.17 104.68 1285.39 104.68Z" fill="#B12030" fill-opacity="0.03"/>
<path d="M1285.39 150.669C1283.72 150.669 1282.13 149.2 1282.2 147.475C1282.28 145.745 1283.6 144.281 1285.39 144.281C1287.05 144.281 1288.64 145.751 1288.57 147.475C1288.49 149.206 1287.17 150.669 1285.39 150.669Z" fill="#B12030" fill-opacity="0.03"/>
<path d="M1298.72 127.671C1297.05 127.671 1295.46 126.202 1295.54 124.477C1295.61 122.747 1296.93 121.283 1298.72 121.283C1300.38 121.283 1301.98 122.752 1301.9 124.477C1301.82 126.208 1300.5 127.671 1298.72 127.671Z" fill="#B12030" fill-opacity="0.03"/>
</g>
<mask id="mask13_62_302" style="mask-type:luminance" maskUnits="userSpaceOnUse" x="139" y="0" width="1374" height="489">
<path d="M139 0H1513V489H139V0Z" fill="white"/>
</mask>
<g mask="url(#mask13_62_302)">
<path d="M1451.3 391.413C1450.47 391.413 1449.68 390.679 1449.71 389.816C1449.75 388.951 1450.41 388.219 1451.3 388.219C1452.14 388.219 1452.93 388.954 1452.9 389.816C1452.86 390.682 1452.2 391.413 1451.3 391.413Z" fill="#B12030" fill-opacity="0.03"/>
<path d="M1457.4 379.213H1469.6L1475.69 389.815L1469.6 400.417H1457.4L1451.3 389.815L1457.4 379.213Z" stroke="#B12030" stroke-opacity="0.03" stroke-width="3" stroke-miterlimit="10"/>
<path d="M1457.45 380.812C1456.62 380.812 1455.83 380.077 1455.86 379.215C1455.9 378.349 1456.56 377.618 1457.45 377.618C1458.29 377.618 1459.08 378.352 1459.05 379.215C1459.01 380.08 1458.35 380.812 1457.45 380.812Z" fill="#B12030" fill-opacity="0.03"/>
<path d="M1457.45 402.015C1456.62 402.015 1455.83 401.28 1455.86 400.418C1455.9 399.553 1456.56 398.821 1457.45 398.821C1458.29 398.821 1459.08 399.555 1459.05 400.418C1459.01 401.283 1458.35 402.015 1457.45 402.015Z" fill="#B12030" fill-opacity="0.03"/>
<path d="M1469.55 380.812C1468.72 380.812 1467.92 380.077 1467.96 379.215C1468 378.349 1468.66 377.618 1469.55 377.618C1470.38 377.618 1471.18 378.352 1471.14 379.215C1471.1 380.08 1470.44 380.812 1469.55 380.812Z" fill="#B12030" fill-opacity="0.03"/>
<path d="M1469.55 402.015C1468.72 402.015 1467.92 401.28 1467.96 400.418C1468 399.553 1468.66 398.821 1469.55 398.821C1470.38 398.821 1471.18 399.555 1471.14 400.418C1471.1 401.283 1470.44 402.015 1469.55 402.015Z" fill="#B12030" fill-opacity="0.03"/>
<path d="M1475.69 391.413C1474.86 391.413 1474.06 390.679 1474.1 389.816C1474.14 388.951 1474.8 388.219 1475.69 388.219C1476.52 388.219 1477.32 388.954 1477.28 389.816C1477.24 390.682 1476.58 391.413 1475.69 391.413Z" fill="#B12030" fill-opacity="0.03"/>
</g>
<mask id="mask14_62_302" style="mask-type:luminance" maskUnits="userSpaceOnUse" x="139" y="0" width="1374" height="489">
<path d="M139 0H1513V489H139V0Z" fill="white"/>
</mask>
<g mask="url(#mask14_62_302)">
<path d="M1259.19 3.58149C1257.53 3.58149 1255.93 2.11222 1256.01 0.387427C1256.09 -1.34305 1257.41 -2.80664 1259.19 -2.80664C1260.85 -2.80664 1262.45 -1.33737 1262.37 0.387427C1262.29 2.1179 1260.97 3.58149 1259.19 3.58149Z" fill="#B12030" fill-opacity="0.03"/>
<path d="M1273.76 -24.936H1302.89L1317.45 0.389012L1302.89 25.7141H1273.76L1259.19 0.389012L1273.76 -24.936Z" stroke="#B12030" stroke-opacity="0.03" stroke-width="6" stroke-miterlimit="10"/>
<path d="M1273.88 28.9057C1272.22 28.9057 1270.62 27.4364 1270.7 25.7116C1270.78 23.9812 1272.1 22.5176 1273.88 22.5176C1275.55 22.5176 1277.14 23.9868 1277.07 25.7116C1276.99 27.4421 1275.67 28.9057 1273.88 28.9057Z" fill="#B12030" fill-opacity="0.03"/>
<path d="M1302.77 28.9057C1301.1 28.9057 1299.51 27.4364 1299.58 25.7116C1299.66 23.9812 1300.98 22.5176 1302.77 22.5176C1304.43 22.5176 1306.02 23.9868 1305.95 25.7116C1305.87 27.4421 1304.55 28.9057 1302.77 28.9057Z" fill="#B12030" fill-opacity="0.03"/>
<path d="M1317.45 3.58271C1315.79 3.58271 1314.19 2.11344 1314.27 0.388647C1314.35 -1.34183 1315.67 -2.80542 1317.45 -2.80542C1319.12 -2.80542 1320.71 -1.33615 1320.63 0.388647C1320.56 2.11912 1319.24 3.58271 1317.45 3.58271Z" fill="#B12030" fill-opacity="0.03"/>
</g>
<mask id="mask15_62_302" style="mask-type:luminance" maskUnits="userSpaceOnUse" x="139" y="0" width="1374" height="489">
<path d="M139 0H1513V489H139V0Z" fill="white"/>
</mask>
<g mask="url(#mask15_62_302)">
<path d="M1441.1 174.2H1470.54L1485.26 199.793L1470.54 225.386H1441.1L1426.38 199.793L1441.1 174.2Z" stroke="#B12030" stroke-opacity="0.03" stroke-width="6" stroke-miterlimit="10"/>
<path d="M1441.23 177.393C1439.56 177.393 1437.97 175.924 1438.05 174.199C1438.12 172.469 1439.44 171.005 1441.23 171.005C1442.89 171.005 1444.49 172.474 1444.41 174.199C1444.33 175.93 1443.01 177.393 1441.23 177.393Z" fill="#B12030" fill-opacity="0.03"/>
<path d="M1441.23 228.582C1439.56 228.582 1437.97 227.113 1438.05 225.388C1438.12 223.657 1439.44 222.194 1441.23 222.194C1442.89 222.194 1444.49 223.663 1444.41 225.388C1444.33 227.118 1443.01 228.582 1441.23 228.582Z" fill="#B12030" fill-opacity="0.03"/>
<path d="M1426.39 202.985C1424.72 202.985 1423.13 201.516 1423.2 199.791C1423.28 198.061 1424.6 196.597 1426.39 196.597C1428.05 196.597 1429.64 198.066 1429.57 199.791C1429.49 201.521 1428.17 202.985 1426.39 202.985Z" fill="#B12030" fill-opacity="0.03"/>
<path d="M1470.41 177.393C1468.75 177.393 1467.15 175.924 1467.23 174.199C1467.31 172.469 1468.63 171.005 1470.41 171.005C1472.08 171.005 1473.67 172.474 1473.59 174.199C1473.52 175.93 1472.2 177.393 1470.41 177.393Z" fill="#B12030" fill-opacity="0.03"/>
<path d="M1470.41 228.582C1468.75 228.582 1467.15 227.113 1467.23 225.388C1467.31 223.657 1468.63 222.194 1470.41 222.194C1472.08 222.194 1473.67 223.663 1473.59 225.388C1473.52 227.118 1472.2 228.582 1470.41 228.582Z" fill="#B12030" fill-opacity="0.03"/>
<path d="M1485.25 202.985C1483.59 202.985 1482 201.516 1482.07 199.791C1482.15 198.061 1483.47 196.597 1485.25 196.597C1486.92 196.597 1488.51 198.066 1488.44 199.791C1488.36 201.521 1487.04 202.985 1485.25 202.985Z" fill="#B12030" fill-opacity="0.03"/>
<path d="M1351.55 264.376C1350.72 264.376 1349.92 263.642 1349.96 262.779C1350 261.914 1350.66 261.182 1351.55 261.182C1352.38 261.182 1353.18 261.917 1353.14 262.779C1353.1 263.644 1352.44 264.376 1351.55 264.376Z" fill="#B12030" fill-opacity="0.03"/>
<path d="M1376.77 218.935H1427.19L1452.41 262.776L1427.19 306.617H1376.77L1351.55 262.776L1376.77 218.935Z" stroke="#B12030" stroke-opacity="0.03" stroke-width="3" stroke-miterlimit="10"/>
<path d="M1376.98 220.534C1376.15 220.534 1375.35 219.799 1375.39 218.937C1375.43 218.072 1376.09 217.34 1376.98 217.34C1377.81 217.34 1378.61 218.074 1378.57 218.937C1378.53 219.802 1377.87 220.534 1376.98 220.534Z" fill="#B12030" fill-opacity="0.03"/>
<path d="M1376.98 308.213C1376.15 308.213 1375.35 307.478 1375.39 306.616C1375.43 305.75 1376.09 305.019 1376.98 305.019C1377.81 305.019 1378.61 305.753 1378.57 306.616C1378.53 307.481 1377.87 308.213 1376.98 308.213Z" fill="#B12030" fill-opacity="0.03"/>
<path d="M1426.98 220.534C1426.15 220.534 1425.35 219.799 1425.39 218.937C1425.43 218.072 1426.09 217.34 1426.98 217.34C1427.81 217.34 1428.61 218.074 1428.57 218.937C1428.53 219.802 1427.87 220.534 1426.98 220.534Z" fill="#B12030" fill-opacity="0.03"/>
<path d="M1426.98 308.213C1426.15 308.213 1425.35 307.478 1425.39 306.616C1425.43 305.75 1426.09 305.019 1426.98 305.019C1427.81 305.019 1428.61 305.753 1428.57 306.616C1428.53 307.481 1427.87 308.213 1426.98 308.213Z" fill="#B12030" fill-opacity="0.03"/>
<path d="M1452.41 264.376C1451.58 264.376 1450.78 263.642 1450.82 262.779C1450.86 261.914 1451.52 261.182 1452.41 261.182C1453.24 261.182 1454.04 261.917 1454 262.779C1453.96 263.644 1453.3 264.376 1452.41 264.376Z" fill="#B12030" fill-opacity="0.03"/>
<path d="M1233.65 54.6826C1232.84 54.6826 1232.07 53.948 1232.11 53.0856C1232.14 52.2203 1232.78 51.4885 1233.65 51.4885C1234.46 51.4885 1235.23 52.2232 1235.2 53.0856C1235.16 53.9508 1234.52 54.6826 1233.65 54.6826Z" fill="#B12030" fill-opacity="0.03"/>
<path d="M1240.62 40.6042H1254.57L1261.54 53.0828L1254.57 65.5616H1240.62L1233.65 53.0828L1240.62 40.6042Z" stroke="#B12030" stroke-opacity="0.03" stroke-width="3" stroke-miterlimit="10"/>
<path d="M1240.68 42.2009C1239.87 42.2009 1239.1 41.4663 1239.14 40.6039C1239.17 39.7386 1239.81 39.0068 1240.68 39.0068C1241.49 39.0068 1242.26 39.7415 1242.23 40.6039C1242.19 41.4691 1241.55 42.2009 1240.68 42.2009Z" fill="#B12030" fill-opacity="0.03"/>
<path d="M1240.68 67.1601C1239.87 67.1601 1239.1 66.4255 1239.14 65.5631C1239.17 64.6979 1239.81 63.9661 1240.68 63.9661C1241.49 63.9661 1242.26 64.7007 1242.23 65.5631C1242.19 66.4283 1241.55 67.1601 1240.68 67.1601Z" fill="#B12030" fill-opacity="0.03"/>
<path d="M1254.51 42.2009C1253.7 42.2009 1252.93 41.4663 1252.96 40.6039C1253 39.7386 1253.64 39.0068 1254.51 39.0068C1255.32 39.0068 1256.09 39.7415 1256.05 40.6039C1256.02 41.4691 1255.38 42.2009 1254.51 42.2009Z" fill="#B12030" fill-opacity="0.03"/>
<path d="M1254.51 67.1601C1253.7 67.1601 1252.93 66.4255 1252.96 65.5631C1253 64.6979 1253.64 63.9661 1254.51 63.9661C1255.32 63.9661 1256.09 64.7007 1256.05 65.5631C1256.02 66.4283 1255.38 67.1601 1254.51 67.1601Z" fill="#B12030" fill-opacity="0.03"/>
<path d="M1261.54 54.6816C1260.73 54.6816 1259.95 53.947 1259.99 53.0846C1260.03 52.2193 1260.67 51.4875 1261.54 51.4875C1262.35 51.4875 1263.12 52.2222 1263.08 53.0846C1263.04 53.9498 1262.4 54.6816 1261.54 54.6816Z" fill="#B12030" fill-opacity="0.03"/>
</g>
<mask id="mask16_62_302" style="mask-type:luminance" maskUnits="userSpaceOnUse" x="0" y="0" width="1372" height="489">
<path d="M1372 0H0V489H1372V0Z" fill="white"/>
</mask>
<g mask="url(#mask16_62_302)">
</g>
<mask id="mask17_62_302" style="mask-type:luminance" maskUnits="userSpaceOnUse" x="0" y="0" width="1372" height="489">
<path d="M1372 0H0V489H1372V0Z" fill="white"/>
</mask>
<g mask="url(#mask17_62_302)">
<path d="M122.009 204.458H81.6324L61.4437 239.745L81.6324 275.032H122.009L142.198 239.745L122.009 204.458Z" fill="#DB0000" fill-opacity="0.04"/>
</g>
<mask id="mask18_62_302" style="mask-type:luminance" maskUnits="userSpaceOnUse" x="0" y="0" width="1372" height="489">
<path d="M1372 0H0V489H1372V0Z" fill="white"/>
</mask>
<g mask="url(#mask18_62_302)">
<path d="M167.981 52.9307H135.874L119.82 80.4339L135.874 107.937H167.981L184.035 80.4339L167.981 52.9307Z" fill="#DB0000" fill-opacity="0.04"/>
</g>
<mask id="mask19_62_302" style="mask-type:luminance" maskUnits="userSpaceOnUse" x="0" y="0" width="1372" height="489">
<path d="M1372 0H0V489H1372V0Z" fill="white"/>
</mask>
<g mask="url(#mask19_62_302)">
<path d="M37.8497 334.19H15.9584L5.01294 353.39L15.9584 372.591H37.8497L48.7955 353.39L37.8497 334.19Z" fill="#DB0000" fill-opacity="0.04"/>
</g>
<mask id="mask20_62_302" style="mask-type:luminance" maskUnits="userSpaceOnUse" x="0" y="0" width="1372" height="489">
<path d="M1372 0H0V489H1372V0Z" fill="white"/>
</mask>
<g mask="url(#mask20_62_302)">
<path d="M146.819 287.486H124.929L113.983 306.687L124.929 325.887H146.819L157.765 306.687L146.819 287.486Z" fill="#DB0000" fill-opacity="0.04"/>
</g>
<mask id="mask21_62_302" style="mask-type:luminance" maskUnits="userSpaceOnUse" x="0" y="0" width="1372" height="489">
<path d="M1372 0H0V489H1372V0Z" fill="white"/>
</mask>
<g mask="url(#mask21_62_302)">
<path d="M53.1735 56.0442H1.60748L-24.1754 101.191L1.60748 146.338H53.1735L78.9568 101.191L53.1735 56.0442Z" fill="#DB0000" fill-opacity="0.04"/>
</g>
<mask id="mask22_62_302" style="mask-type:luminance" maskUnits="userSpaceOnUse" x="0" y="0" width="1372" height="489">
<path d="M1372 0H0V489H1372V0Z" fill="white"/>
</mask>
<g mask="url(#mask22_62_302)">
<path d="M93.0646 -49.8171H41.4985L15.7153 -4.67055L41.4985 40.4764H93.0646L118.847 -4.67055L93.0646 -49.8171Z" fill="#DB0000" fill-opacity="0.04"/>
</g>
<mask id="mask23_62_302" style="mask-type:luminance" maskUnits="userSpaceOnUse" x="0" y="0" width="1372" height="489">
<path d="M1372 0H0V489H1372V0Z" fill="white"/>
</mask>
<g mask="url(#mask23_62_302)">
<path d="M13.8865 -31.6528H-59.7068L-96.5032 32.4216L-59.7068 96.496H13.8865L50.6833 32.4216L13.8865 -31.6528Z" stroke="#B12030" stroke-opacity="0.03" stroke-width="10" stroke-miterlimit="10"/>
<path d="M13.5772 101.821C14.9348 101.821 16.361 101.227 17.3215 100.262C18.24 99.3385 18.9316 97.8238 18.8723 96.4975C18.8109 95.1209 18.3611 93.6928 17.3215 92.7331C16.2854 91.777 15.0121 91.1741 13.5772 91.1741C12.2195 91.1741 10.793 91.7678 9.83281 92.7331C8.91429 93.6566 8.22274 95.1713 8.28205 96.4975C8.34347 97.8742 8.79321 99.3023 9.83281 100.262C10.8689 101.218 12.1422 101.821 13.5772 101.821Z" fill="#B12030" fill-opacity="0.03"/>
<path d="M50.6848 37.7455C52.0424 37.7455 53.4686 37.1518 54.4291 36.1865C55.3476 35.263 56.0392 33.7483 55.9799 32.4221C55.9185 31.0454 55.4687 29.6173 54.4291 28.6577C53.393 27.7016 52.1197 27.0986 50.6848 27.0986C49.3271 27.0986 47.9006 27.6924 46.9404 28.6577C46.0219 29.5811 45.3303 31.0958 45.3897 32.4221C45.4511 33.7987 45.9008 35.2268 46.9404 36.1865C47.9765 37.1426 49.2498 37.7455 50.6848 37.7455Z" fill="#B12030" fill-opacity="0.03"/>
</g>
<mask id="mask24_62_302" style="mask-type:luminance" maskUnits="userSpaceOnUse" x="0" y="0" width="1372" height="489">
<path d="M1372 0H0V489H1372V0Z" fill="white"/>
</mask>
<g mask="url(#mask24_62_302)">
<path d="M100.724 129.799C102.081 129.799 103.507 129.205 104.468 128.24C105.386 127.316 106.078 125.802 106.019 124.475C105.957 123.099 105.508 121.671 104.468 120.711C103.432 119.755 102.159 119.152 100.724 119.152C99.3659 119.152 97.9394 119.746 96.9792 120.711C96.0607 121.634 95.3692 123.149 95.4285 124.475C95.4899 125.852 95.9396 127.28 96.9792 128.24C98.0153 129.196 99.2886 129.799 100.724 129.799Z" fill="#B12030" fill-opacity="0.03"/>
<path d="M63.9267 60.4004H-9.66656L-46.463 124.475L-9.66656 188.55H63.9267L100.724 124.475L63.9267 60.4004Z" stroke="#B12030" stroke-opacity="0.03" stroke-width="10" stroke-miterlimit="10"/>
<path d="M63.6154 65.7233C64.973 65.7233 66.3992 65.1296 67.3597 64.1642C68.2782 63.2408 68.9698 61.7261 68.9105 60.3999C68.8491 59.0232 68.3993 57.5951 67.3597 56.6355C66.3236 55.6794 65.0503 55.0764 63.6154 55.0764C62.2577 55.0764 60.8316 55.6702 59.871 56.6355C58.9525 57.5589 58.261 59.0736 58.3203 60.3999C58.3817 61.7765 58.8314 63.2046 59.871 64.1642C60.9071 65.1203 62.1807 65.7233 63.6154 65.7233Z" fill="#B12030" fill-opacity="0.03"/>
<path d="M63.6154 193.874C64.973 193.874 66.3992 193.28 67.3597 192.315C68.2782 191.392 68.9698 189.877 68.9105 188.551C68.8491 187.174 68.3993 185.746 67.3597 184.786C66.3236 183.83 65.0503 183.227 63.6154 183.227C62.2577 183.227 60.8316 183.821 59.871 184.786C58.9525 185.71 58.261 187.224 58.3203 188.551C58.3817 189.927 58.8314 191.355 59.871 192.315C60.9071 193.271 62.1807 193.874 63.6154 193.874Z" fill="#B12030" fill-opacity="0.03"/>
</g>
<mask id="mask25_62_302" style="mask-type:luminance" maskUnits="userSpaceOnUse" x="0" y="0" width="1372" height="489">
<path d="M1372 0H0V489H1372V0Z" fill="white"/>
</mask>
<g mask="url(#mask25_62_302)">
<path d="M160.764 9.32731C162.122 9.32731 163.548 8.73357 164.508 7.76825C165.427 6.84481 166.119 5.33011 166.059 4.00387C165.998 2.62722 165.548 1.19912 164.508 0.23948C163.472 -0.716611 162.199 -1.31958 160.764 -1.31958C159.406 -1.31958 157.98 -0.725838 157.02 0.23948C156.101 1.16292 155.41 2.67762 155.469 4.00387C155.53 5.38051 155.98 6.80861 157.02 7.76825C158.056 8.72434 159.329 9.32731 160.764 9.32731Z" fill="#B12030" fill-opacity="0.03"/>
<path d="M137.394 -36.697H90.6504L67.2789 4.00072L90.6504 44.6988H137.394L160.766 4.00072L137.394 -36.697Z" stroke="#B12030" stroke-opacity="0.03" stroke-width="10" stroke-miterlimit="10"/>
<path d="M137.201 50.0226C138.558 50.0226 139.985 49.4289 140.945 48.4636C141.863 47.5401 142.555 46.0254 142.496 44.6992C142.434 43.3225 141.985 41.8944 140.945 40.9348C139.909 39.9787 138.636 39.3757 137.201 39.3757C135.843 39.3757 134.417 39.9695 133.456 40.9348C132.538 41.8582 131.846 43.3729 131.905 44.6992C131.967 46.0758 132.417 47.5039 133.456 48.4636C134.492 49.4193 135.766 50.0226 137.201 50.0226Z" fill="#B12030" fill-opacity="0.03"/>
<path d="M90.8472 50.0226C92.2048 50.0226 93.631 49.4289 94.5915 48.4636C95.5101 47.5401 96.2016 46.0254 96.1423 44.6992C96.0809 43.3225 95.6311 41.8944 94.5915 40.9348C93.5555 39.9787 92.2822 39.3757 90.8472 39.3757C89.4895 39.3757 88.063 39.9695 87.1028 40.9348C86.1843 41.8582 85.4928 43.3729 85.5521 44.6992C85.6135 46.0758 86.0632 47.5039 87.1028 48.4636C88.1389 49.4193 89.4126 50.0226 90.8472 50.0226Z" fill="#B12030" fill-opacity="0.03"/>
<path d="M67.2821 9.32731C68.6397 9.32731 70.0659 8.73357 71.0264 7.76825C71.9449 6.84481 72.6365 5.33011 72.5772 4.00387C72.5157 2.62722 72.066 1.19912 71.0264 0.23948C69.9903 -0.716611 68.717 -1.31958 67.2821 -1.31958C65.9244 -1.31958 64.4982 -0.725838 63.5377 0.23948C62.6192 1.16292 61.9276 2.67762 61.9869 4.00387C62.0484 5.38051 62.4981 6.80861 63.5377 7.76825C64.5738 8.72434 65.8471 9.32731 67.2821 9.32731Z" fill="#B12030" fill-opacity="0.03"/>
</g>
<mask id="mask26_62_302" style="mask-type:luminance" maskUnits="userSpaceOnUse" x="0" y="0" width="1372" height="489">
<path d="M1372 0H0V489H1372V0Z" fill="white"/>
</mask>
<g mask="url(#mask26_62_302)">
<path d="M94.2806 265.56C95.6383 265.56 97.0648 264.967 98.025 264.001C98.9435 263.078 99.6351 261.563 99.5758 260.237C99.5143 258.86 99.0646 257.432 98.025 256.472C96.9889 255.516 95.7156 254.913 94.2806 254.913C92.923 254.913 91.4968 255.507 90.5363 256.472C89.6178 257.396 88.9262 258.911 88.9855 260.237C89.047 261.613 89.4967 263.042 90.5363 264.001C91.5727 264.957 92.846 265.56 94.2806 265.56Z" fill="#B12030" fill-opacity="0.03"/>
<path d="M67.6452 213.855H14.3743L-12.2616 260.236L14.3743 306.617H67.6452L94.2807 260.236L67.6452 213.855Z" stroke="#B12030" stroke-opacity="0.03" stroke-width="10" stroke-miterlimit="10"/>
<path d="M67.4185 219.18C68.7761 219.18 70.2023 218.586 71.1628 217.621C72.0813 216.698 72.7729 215.183 72.7136 213.857C72.6522 212.48 72.2024 211.052 71.1628 210.092C70.1267 209.136 68.8534 208.533 67.4185 208.533C66.0608 208.533 64.6347 209.127 63.6741 210.092C62.7556 211.016 62.0641 212.53 62.1234 213.857C62.1848 215.233 62.6345 216.661 63.6741 217.621C64.7102 218.577 65.9838 219.18 67.4185 219.18Z" fill="#B12030" fill-opacity="0.03"/>
<path d="M67.4185 311.943C68.7761 311.943 70.2023 311.349 71.1628 310.384C72.0813 309.46 72.7729 307.946 72.7136 306.619C72.6522 305.243 72.2024 303.815 71.1628 302.855C70.1267 301.899 68.8534 301.296 67.4185 301.296C66.0608 301.296 64.6347 301.89 63.6741 302.855C62.7556 303.778 62.0641 305.293 62.1234 306.619C62.1848 307.996 62.6345 309.424 63.6741 310.384C64.7102 311.339 65.9838 311.943 67.4185 311.943Z" fill="#B12030" fill-opacity="0.03"/>
<path d="M14.5971 219.18C15.9547 219.18 17.3809 218.586 18.3414 217.621C19.2599 216.698 19.9515 215.183 19.8922 213.857C19.8308 212.48 19.381 211.052 18.3414 210.092C17.3053 209.136 16.032 208.533 14.5971 208.533C13.2394 208.533 11.8132 209.127 10.8527 210.092C9.93418 211.016 9.24264 212.53 9.30195 213.857C9.36337 215.233 9.8131 216.661 10.8527 217.621C11.8888 218.577 13.1621 219.18 14.5971 219.18Z" fill="#B12030" fill-opacity="0.03"/>
<path d="M14.5971 311.943C15.9547 311.943 17.3809 311.349 18.3414 310.384C19.2599 309.46 19.9515 307.946 19.8922 306.619C19.8308 305.243 19.381 303.815 18.3414 302.855C17.3053 301.899 16.032 301.296 14.5971 301.296C13.2394 301.296 11.8132 301.89 10.8527 302.855C9.93418 303.778 9.24264 305.293 9.30195 306.619C9.36337 307.996 9.8131 309.424 10.8527 310.384C11.8888 311.339 13.1621 311.943 14.5971 311.943Z" fill="#B12030" fill-opacity="0.03"/>
</g>
<mask id="mask27_62_302" style="mask-type:luminance" maskUnits="userSpaceOnUse" x="0" y="0" width="1372" height="489">
<path d="M1372 0H0V489H1372V0Z" fill="white"/>
</mask>
<g mask="url(#mask27_62_302)">
<path d="M171.832 322.328C173.494 322.328 175.086 320.858 175.009 319.134C174.932 317.403 173.613 315.939 171.832 315.939C170.17 315.939 168.578 317.409 168.655 319.134C168.732 320.864 170.051 322.328 171.832 322.328Z" fill="#B12030" fill-opacity="0.03"/>
<path d="M158.627 296.138H132.216L119.011 319.133L132.216 342.127H158.627L171.832 319.133L158.627 296.138Z" stroke="#B12030" stroke-opacity="0.03" stroke-width="6" stroke-miterlimit="10"/>
<path d="M158.512 299.331C160.174 299.331 161.766 297.862 161.689 296.137C161.613 294.407 160.294 292.943 158.512 292.943C156.85 292.943 155.258 294.413 155.335 296.137C155.412 297.868 156.731 299.331 158.512 299.331Z" fill="#B12030" fill-opacity="0.03"/>
<path d="M158.512 345.321C160.174 345.321 161.766 343.851 161.689 342.127C161.613 340.396 160.294 338.933 158.512 338.933C156.85 338.933 155.258 340.402 155.335 342.127C155.412 343.857 156.731 345.321 158.512 345.321Z" fill="#B12030" fill-opacity="0.03"/>
<path d="M132.326 299.331C133.988 299.331 135.58 297.862 135.503 296.137C135.426 294.407 134.108 292.943 132.326 292.943C130.664 292.943 129.072 294.413 129.149 296.137C129.226 297.868 130.545 299.331 132.326 299.331Z" fill="#B12030" fill-opacity="0.03"/>
<path d="M132.326 345.321C133.988 345.321 135.58 343.851 135.503 342.127C135.426 340.396 134.108 338.933 132.326 338.933C130.664 338.933 129.072 340.402 129.149 342.127C129.226 343.857 130.545 345.321 132.326 345.321Z" fill="#B12030" fill-opacity="0.03"/>
<path d="M119.013 322.328C120.675 322.328 122.267 320.858 122.19 319.134C122.113 317.403 120.795 315.939 119.013 315.939C117.351 315.939 115.759 317.409 115.836 319.134C115.914 320.864 117.232 322.328 119.013 322.328Z" fill="#B12030" fill-opacity="0.03"/>
</g>
<mask id="mask28_62_302" style="mask-type:luminance" maskUnits="userSpaceOnUse" x="0" y="0" width="1372" height="489">
<path d="M1372 0H0V489H1372V0Z" fill="white"/>
</mask>
<g mask="url(#mask28_62_302)">
<path d="M266.789 127.671C268.451 127.671 270.043 126.202 269.966 124.477C269.889 122.747 268.57 121.283 266.789 121.283C265.127 121.283 263.535 122.752 263.612 124.477C263.689 126.208 265.008 127.671 266.789 127.671Z" fill="#B12030" fill-opacity="0.03"/>
<path d="M253.585 101.486H227.174L213.969 124.48L227.174 147.475H253.585L266.79 124.48L253.585 101.486Z" stroke="#B12030" stroke-opacity="0.03" stroke-width="6" stroke-miterlimit="10"/>
<path d="M253.47 104.68C255.132 104.68 256.724 103.211 256.647 101.486C256.57 99.7558 255.251 98.2922 253.47 98.2922C251.808 98.2922 250.216 99.7615 250.292 101.486C250.37 103.217 251.689 104.68 253.47 104.68Z" fill="#B12030" fill-opacity="0.03"/>
<path d="M253.47 150.669C255.132 150.669 256.724 149.2 256.647 147.475C256.57 145.745 255.251 144.281 253.47 144.281C251.808 144.281 250.216 145.751 250.292 147.475C250.37 149.206 251.689 150.669 253.47 150.669Z" fill="#B12030" fill-opacity="0.03"/>
<path d="M227.283 104.68C228.945 104.68 230.537 103.211 230.46 101.486C230.384 99.7558 229.065 98.2922 227.283 98.2922C225.621 98.2922 224.029 99.7615 224.106 101.486C224.183 103.217 225.502 104.68 227.283 104.68Z" fill="#B12030" fill-opacity="0.03"/>
<path d="M227.283 150.669C228.945 150.669 230.537 149.2 230.46 147.475C230.384 145.745 229.065 144.281 227.283 144.281C225.621 144.281 224.029 145.751 224.106 147.475C224.183 149.206 225.502 150.669 227.283 150.669Z" fill="#B12030" fill-opacity="0.03"/>
<path d="M213.971 127.671C215.632 127.671 217.225 126.202 217.148 124.477C217.071 122.747 215.752 121.283 213.971 121.283C212.309 121.283 210.716 122.752 210.793 124.477C210.87 126.208 212.19 127.671 213.971 127.671Z" fill="#B12030" fill-opacity="0.03"/>
</g>
<mask id="mask29_62_302" style="mask-type:luminance" maskUnits="userSpaceOnUse" x="0" y="0" width="1372" height="489">
<path d="M1372 0H0V489H1372V0Z" fill="white"/>
</mask>
<g mask="url(#mask29_62_302)">
<path d="M61.6053 391.413C62.4363 391.413 63.2323 390.679 63.1939 389.816C63.1554 388.951 62.496 388.219 61.6053 388.219C60.7743 388.219 59.9783 388.954 60.0168 389.816C60.0553 390.682 60.7147 391.413 61.6053 391.413Z" fill="#B12030" fill-opacity="0.03"/>
<path d="M55.518 379.213H43.3413L37.253 389.815L43.3413 400.417H55.518L61.6066 389.815L55.518 379.213Z" stroke="#B12030" stroke-opacity="0.03" stroke-width="3" stroke-miterlimit="10"/>
<path d="M55.4644 380.812C56.2954 380.812 57.0914 380.077 57.0529 379.215C57.0144 378.349 56.355 377.618 55.4644 377.618C54.6334 377.618 53.8374 378.352 53.8759 379.215C53.9143 380.08 54.5737 380.812 55.4644 380.812Z" fill="#B12030" fill-opacity="0.03"/>
<path d="M55.4644 402.015C56.2954 402.015 57.0914 401.28 57.0529 400.418C57.0144 399.553 56.355 398.821 55.4644 398.821C54.6334 398.821 53.8374 399.555 53.8759 400.418C53.9143 401.283 54.5737 402.015 55.4644 402.015Z" fill="#B12030" fill-opacity="0.03"/>
<path d="M43.3886 380.812C44.2196 380.812 45.0157 380.077 44.9772 379.215C44.9387 378.349 44.2793 377.618 43.3886 377.618C42.5577 377.618 41.7616 378.352 41.8001 379.215C41.8386 380.08 42.498 380.812 43.3886 380.812Z" fill="#B12030" fill-opacity="0.03"/>
<path d="M43.3886 402.015C44.2196 402.015 45.0157 401.28 44.9772 400.418C44.9387 399.553 44.2793 398.821 43.3886 398.821C42.5577 398.821 41.7616 399.555 41.8001 400.418C41.8386 401.283 42.498 402.015 43.3886 402.015Z" fill="#B12030" fill-opacity="0.03"/>
<path d="M37.2544 391.413C38.0853 391.413 38.8814 390.679 38.8429 389.816C38.8044 388.951 38.145 388.219 37.2544 388.219C36.4234 388.219 35.6274 388.954 35.6658 389.816C35.7043 390.682 36.3637 391.413 37.2544 391.413Z" fill="#B12030" fill-opacity="0.03"/>
</g>
<mask id="mask30_62_302" style="mask-type:luminance" maskUnits="userSpaceOnUse" x="0" y="0" width="1372" height="489">
<path d="M1372 0H0V489H1372V0Z" fill="white"/>
</mask>
<g mask="url(#mask30_62_302)">
<path d="M253.441 3.58149C255.103 3.58149 256.695 2.11222 256.618 0.387427C256.541 -1.34305 255.222 -2.80664 253.441 -2.80664C251.779 -2.80664 250.187 -1.33737 250.264 0.387427C250.341 2.1179 251.659 3.58149 253.441 3.58149Z" fill="#B12030" fill-opacity="0.03"/>
<path d="M238.895 -24.936H209.808L195.264 0.389012L209.808 25.7141H238.895L253.439 0.389012L238.895 -24.936Z" stroke="#B12030" stroke-opacity="0.03" stroke-width="6" stroke-miterlimit="10"/>
<path d="M238.768 28.9057C240.43 28.9057 242.023 27.4364 241.946 25.7116C241.869 23.9812 240.549 22.5176 238.768 22.5176C237.107 22.5176 235.514 23.9868 235.591 25.7116C235.669 27.4421 236.988 28.9057 238.768 28.9057Z" fill="#B12030" fill-opacity="0.03"/>
<path d="M209.928 28.9057C211.59 28.9057 213.182 27.4364 213.105 25.7116C213.028 23.9812 211.709 22.5176 209.928 22.5176C208.266 22.5176 206.674 23.9868 206.751 25.7116C206.828 27.4421 208.147 28.9057 209.928 28.9057Z" fill="#B12030" fill-opacity="0.03"/>
<path d="M195.264 3.58271C196.926 3.58271 198.518 2.11344 198.441 0.388647C198.364 -1.34183 197.045 -2.80542 195.264 -2.80542C193.602 -2.80542 192.01 -1.33615 192.087 0.388647C192.164 2.11912 193.483 3.58271 195.264 3.58271Z" fill="#B12030" fill-opacity="0.03"/>
</g>
<mask id="mask31_62_302" style="mask-type:luminance" maskUnits="userSpaceOnUse" x="0" y="0" width="1372" height="489">
<path d="M1372 0H0V489H1372V0Z" fill="white"/>
</mask>
<g mask="url(#mask31_62_302)">
<path d="M71.7951 174.2H42.4001L27.7026 199.793L42.4001 225.386H71.7951L86.4925 199.793L71.7951 174.2Z" stroke="#B12030" stroke-opacity="0.03" stroke-width="6" stroke-miterlimit="10"/>
<path d="M71.6677 177.393C73.3297 177.393 74.9218 175.924 74.8448 174.199C74.7678 172.469 73.449 171.005 71.6677 171.005C70.0058 171.005 68.4137 172.474 68.4907 174.199C68.5676 175.93 69.8864 177.393 71.6677 177.393Z" fill="#B12030" fill-opacity="0.03"/>
<path d="M71.6677 228.582C73.3297 228.582 74.9218 227.113 74.8448 225.388C74.7678 223.657 73.449 222.194 71.6677 222.194C70.0058 222.194 68.4137 223.663 68.4907 225.388C68.5676 227.118 69.8864 228.582 71.6677 228.582Z" fill="#B12030" fill-opacity="0.03"/>
<path d="M86.4883 202.985C88.1503 202.985 89.7424 201.516 89.6654 199.791C89.5885 198.061 88.2696 196.597 86.4883 196.597C84.8264 196.597 83.2343 198.066 83.3113 199.791C83.3882 201.521 84.7071 202.985 86.4883 202.985Z" fill="#B12030" fill-opacity="0.03"/>
<path d="M42.5254 177.393C44.1874 177.393 45.7794 175.924 45.7025 174.199C45.6255 172.469 44.3063 171.005 42.5254 171.005C40.8634 171.005 39.2714 172.474 39.3483 174.199C39.4253 175.93 40.7441 177.393 42.5254 177.393Z" fill="#B12030" fill-opacity="0.03"/>
<path d="M42.5254 228.582C44.1874 228.582 45.7794 227.113 45.7025 225.388C45.6255 223.657 44.3063 222.194 42.5254 222.194C40.8634 222.194 39.2714 223.663 39.3483 225.388C39.4253 227.118 40.7441 228.582 42.5254 228.582Z" fill="#B12030" fill-opacity="0.03"/>
<path d="M27.7048 202.985C29.3667 202.985 30.9588 201.516 30.8818 199.791C30.8049 198.061 29.4857 196.597 27.7048 196.597C26.0428 196.597 24.4507 198.066 24.5277 199.791C24.6047 201.521 25.9235 202.985 27.7048 202.985Z" fill="#B12030" fill-opacity="0.03"/>
<path d="M161.215 264.376C162.046 264.376 162.842 263.642 162.803 262.779C162.765 261.914 162.105 261.182 161.215 261.182C160.384 261.182 159.588 261.917 159.626 262.779C159.665 263.644 160.324 264.376 161.215 264.376Z" fill="#B12030" fill-opacity="0.03"/>
<path d="M136.036 218.935H85.6825L60.5056 262.776L85.6825 306.617H136.036L161.213 262.776L136.036 218.935Z" stroke="#B12030" stroke-opacity="0.03" stroke-width="3" stroke-miterlimit="10"/>
<path d="M135.823 220.534C136.654 220.534 137.45 219.799 137.411 218.937C137.373 218.072 136.713 217.34 135.823 217.34C134.992 217.34 134.196 218.074 134.234 218.937C134.273 219.802 134.932 220.534 135.823 220.534Z" fill="#B12030" fill-opacity="0.03"/>
<path d="M135.823 308.213C136.654 308.213 137.45 307.478 137.411 306.616C137.373 305.75 136.713 305.019 135.823 305.019C134.992 305.019 134.196 305.753 134.234 306.616C134.273 307.481 134.932 308.213 135.823 308.213Z" fill="#B12030" fill-opacity="0.03"/>
<path d="M85.8932 220.534C86.7242 220.534 87.5202 219.799 87.4818 218.937C87.4433 218.072 86.7839 217.34 85.8932 217.34C85.0622 217.34 84.2662 218.074 84.3047 218.937C84.3432 219.802 85.0026 220.534 85.8932 220.534Z" fill="#B12030" fill-opacity="0.03"/>
<path d="M85.8932 308.213C86.7242 308.213 87.5202 307.478 87.4818 306.616C87.4433 305.75 86.7839 305.019 85.8932 305.019C85.0622 305.019 84.2662 305.753 84.3047 306.616C84.3432 307.481 85.0026 308.213 85.8932 308.213Z" fill="#B12030" fill-opacity="0.03"/>
<path d="M60.5024 264.376C61.3334 264.376 62.1294 263.642 62.0909 262.779C62.0525 261.914 61.393 261.182 60.5024 261.182C59.6714 261.182 58.8754 261.917 58.9139 262.779C58.9524 263.644 59.6118 264.376 60.5024 264.376Z" fill="#B12030" fill-opacity="0.03"/>
<path d="M278.943 54.6826C279.75 54.6826 280.523 53.948 280.486 53.0856C280.449 52.2203 279.808 51.4885 278.943 51.4885C278.136 51.4885 277.362 52.2232 277.4 53.0856C277.437 53.9508 278.078 54.6826 278.943 54.6826Z" fill="#B12030" fill-opacity="0.03"/>
<path d="M271.981 40.6042H258.058L251.097 53.0828L258.058 65.5616H271.981L278.943 53.0828L271.981 40.6042Z" stroke="#B12030" stroke-opacity="0.03" stroke-width="3" stroke-miterlimit="10"/>
<path d="M271.923 42.2009C272.73 42.2009 273.503 41.4663 273.466 40.6039C273.429 39.7386 272.788 39.0068 271.923 39.0068C271.116 39.0068 270.342 39.7415 270.38 40.6039C270.417 41.4691 271.058 42.2009 271.923 42.2009Z" fill="#B12030" fill-opacity="0.03"/>
<path d="M271.923 67.1601C272.73 67.1601 273.503 66.4255 273.466 65.5631C273.429 64.6979 272.788 63.9661 271.923 63.9661C271.116 63.9661 270.342 64.7007 270.38 65.5631C270.417 66.4283 271.058 67.1601 271.923 67.1601Z" fill="#B12030" fill-opacity="0.03"/>
<path d="M258.114 42.2009C258.921 42.2009 259.695 41.4663 259.657 40.6039C259.62 39.7386 258.979 39.0068 258.114 39.0068C257.307 39.0068 256.534 39.7415 256.571 40.6039C256.608 41.4691 257.249 42.2009 258.114 42.2009Z" fill="#B12030" fill-opacity="0.03"/>
<path d="M258.114 67.1601C258.921 67.1601 259.695 66.4255 259.657 65.5631C259.62 64.6979 258.979 63.9661 258.114 63.9661C257.307 63.9661 256.534 64.7007 256.571 65.5631C256.608 66.4283 257.249 67.1601 258.114 67.1601Z" fill="#B12030" fill-opacity="0.03"/>
<path d="M251.097 54.6816C251.904 54.6816 252.678 53.947 252.64 53.0846C252.603 52.2193 251.962 51.4875 251.097 51.4875C250.29 51.4875 249.517 52.2222 249.554 53.0846C249.591 53.9498 250.232 54.6816 251.097 54.6816Z" fill="#B12030" fill-opacity="0.03"/>
</g>
<mask id="mask32_62_302" style="mask-type:luminance" maskUnits="userSpaceOnUse" x="139" y="392" width="1374" height="489">
<path d="M139 881H1513V392H139V881Z" fill="white"/>
</mask>
<g mask="url(#mask32_62_302)">
</g>
<mask id="mask33_62_302" style="mask-type:luminance" maskUnits="userSpaceOnUse" x="139" y="392" width="1374" height="489">
<path d="M139 881H1513V392H139V881Z" fill="white"/>
</mask>
<g mask="url(#mask33_62_302)">
<path d="M1390.81 676.542H1431.25L1451.47 641.255L1431.25 605.968H1390.81L1370.59 641.255L1390.81 676.542Z" fill="#DB0000" fill-opacity="0.04"/>
</g>
<mask id="mask34_62_302" style="mask-type:luminance" maskUnits="userSpaceOnUse" x="139" y="392" width="1374" height="489">
<path d="M139 881H1513V392H139V881Z" fill="white"/>
</mask>
<g mask="url(#mask34_62_302)">
<path d="M1344.77 828.069H1376.93L1393 800.566L1376.93 773.063H1344.77L1328.7 800.566L1344.77 828.069Z" fill="#DB0000" fill-opacity="0.04"/>
</g>
<mask id="mask35_62_302" style="mask-type:luminance" maskUnits="userSpaceOnUse" x="139" y="392" width="1374" height="489">
<path d="M139 881H1513V392H139V881Z" fill="white"/>
</mask>
<g mask="url(#mask35_62_302)">
<path d="M1475.1 546.81H1497.02L1507.98 527.61L1497.02 508.409H1475.1L1464.13 527.61L1475.1 546.81Z" fill="#DB0000" fill-opacity="0.04"/>
</g>
<mask id="mask36_62_302" style="mask-type:luminance" maskUnits="userSpaceOnUse" x="139" y="392" width="1374" height="489">
<path d="M139 881H1513V392H139V881Z" fill="white"/>
</mask>
<g mask="url(#mask36_62_302)">
<path d="M1365.97 593.514H1387.89L1398.85 574.313L1387.89 555.113H1365.97L1355 574.313L1365.97 593.514Z" fill="#DB0000" fill-opacity="0.04"/>
</g>
<mask id="mask37_62_302" style="mask-type:luminance" maskUnits="userSpaceOnUse" x="139" y="392" width="1374" height="489">
<path d="M139 881H1513V392H139V881Z" fill="white"/>
</mask>
<g mask="url(#mask37_62_302)">
<path d="M1459.75 824.956H1511.39L1537.21 779.809L1511.39 734.662H1459.75L1433.93 779.809L1459.75 824.956Z" fill="#DB0000" fill-opacity="0.04"/>
</g>
<mask id="mask38_62_302" style="mask-type:luminance" maskUnits="userSpaceOnUse" x="139" y="392" width="1374" height="489">
<path d="M139 881H1513V392H139V881Z" fill="white"/>
</mask>
<g mask="url(#mask38_62_302)">
<path d="M1419.8 930.817H1471.44L1497.26 885.67L1471.44 840.523H1419.8L1393.98 885.67L1419.8 930.817Z" fill="#DB0000" fill-opacity="0.04"/>
</g>
<mask id="mask39_62_302" style="mask-type:luminance" maskUnits="userSpaceOnUse" x="139" y="392" width="1374" height="489">
<path d="M139 881H1513V392H139V881Z" fill="white"/>
</mask>
<g mask="url(#mask39_62_302)">
<path d="M1499.09 912.652H1572.79L1609.64 848.578L1572.79 784.504H1499.09L1462.24 848.578L1499.09 912.652Z" stroke="#B12030" stroke-opacity="0.03" stroke-width="10" stroke-miterlimit="10"/>
<path d="M1499.4 779.179C1498.04 779.179 1496.62 779.773 1495.65 780.738C1494.73 781.661 1494.04 783.176 1494.1 784.502C1494.16 785.879 1494.61 787.307 1495.65 788.267C1496.69 789.223 1497.97 789.826 1499.4 789.826C1500.76 789.826 1502.19 789.232 1503.15 788.267C1504.07 787.343 1504.77 785.828 1504.71 784.502C1504.64 783.126 1504.19 781.697 1503.15 780.738C1502.12 779.782 1500.84 779.179 1499.4 779.179Z" fill="#B12030" fill-opacity="0.03"/>
<path d="M1462.24 843.254C1460.88 843.254 1459.45 843.848 1458.49 844.813C1457.57 845.736 1456.88 847.251 1456.94 848.577C1457 849.954 1457.45 851.382 1458.49 852.342C1459.53 853.298 1460.8 853.901 1462.24 853.901C1463.6 853.901 1465.03 853.307 1465.99 852.342C1466.91 851.418 1467.6 849.904 1467.54 848.577C1467.48 847.201 1467.03 845.773 1465.99 844.813C1464.95 843.857 1463.68 843.254 1462.24 843.254Z" fill="#B12030" fill-opacity="0.03"/>
</g>
<mask id="mask40_62_302" style="mask-type:luminance" maskUnits="userSpaceOnUse" x="139" y="392" width="1374" height="489">
<path d="M139 881H1513V392H139V881Z" fill="white"/>
</mask>
<g mask="url(#mask40_62_302)">
<path d="M1412.13 751.201C1410.77 751.201 1409.34 751.795 1408.38 752.76C1407.46 753.684 1406.77 755.198 1406.83 756.525C1406.89 757.901 1407.34 759.329 1408.38 760.289C1409.42 761.245 1410.69 761.848 1412.13 761.848C1413.49 761.848 1414.92 761.254 1415.88 760.289C1416.8 759.366 1417.49 757.851 1417.43 756.525C1417.37 755.148 1416.92 753.72 1415.88 752.76C1414.84 751.804 1413.57 751.201 1412.13 751.201Z" fill="#B12030" fill-opacity="0.03"/>
<path d="M1448.98 820.6H1522.68L1559.53 756.525L1522.68 692.45H1448.98L1412.13 756.525L1448.98 820.6Z" stroke="#B12030" stroke-opacity="0.03" stroke-width="10" stroke-miterlimit="10"/>
<path d="M1449.29 815.277C1447.93 815.277 1446.5 815.871 1445.54 816.836C1444.62 817.759 1443.93 819.274 1443.99 820.6C1444.05 821.977 1444.5 823.405 1445.54 824.365C1446.58 825.321 1447.85 825.924 1449.29 825.924C1450.65 825.924 1452.08 825.33 1453.04 824.365C1453.96 823.441 1454.65 821.927 1454.59 820.6C1454.53 819.224 1454.08 817.796 1453.04 816.836C1452 815.88 1450.73 815.277 1449.29 815.277Z" fill="#B12030" fill-opacity="0.03"/>
<path d="M1449.29 687.126C1447.93 687.126 1446.5 687.72 1445.54 688.685C1444.62 689.609 1443.93 691.123 1443.99 692.45C1444.05 693.826 1444.5 695.254 1445.54 696.214C1446.58 697.17 1447.85 697.773 1449.29 697.773C1450.65 697.773 1452.08 697.179 1453.04 696.214C1453.96 695.29 1454.65 693.776 1454.59 692.45C1454.53 691.073 1454.08 689.645 1453.04 688.685C1452 687.729 1450.73 687.126 1449.29 687.126Z" fill="#B12030" fill-opacity="0.03"/>
</g>
<mask id="mask41_62_302" style="mask-type:luminance" maskUnits="userSpaceOnUse" x="139" y="392" width="1374" height="489">
<path d="M139 881H1513V392H139V881Z" fill="white"/>
</mask>
<g mask="url(#mask41_62_302)">
<path d="M1352 871.672C1350.64 871.672 1349.21 872.266 1348.25 873.232C1347.33 874.155 1346.64 875.67 1346.7 876.996C1346.76 878.373 1347.21 879.801 1348.25 880.76C1349.29 881.716 1350.56 882.319 1352 882.319C1353.36 882.319 1354.79 881.726 1355.75 880.76C1356.67 879.837 1357.36 878.322 1357.3 876.996C1357.24 875.619 1356.79 874.191 1355.75 873.232C1354.71 872.275 1353.44 871.672 1352 871.672Z" fill="#B12030" fill-opacity="0.03"/>
<path d="M1375.41 917.697H1422.22L1445.62 876.999L1422.22 836.301H1375.41L1352 876.999L1375.41 917.697Z" stroke="#B12030" stroke-opacity="0.03" stroke-width="10" stroke-miterlimit="10"/>
<path d="M1375.6 830.977C1374.24 830.977 1372.81 831.571 1371.85 832.536C1370.93 833.46 1370.24 834.974 1370.3 836.301C1370.36 837.677 1370.81 839.105 1371.85 840.065C1372.89 841.021 1374.16 841.624 1375.6 841.624C1376.96 841.624 1378.39 841.03 1379.35 840.065C1380.27 839.142 1380.96 837.627 1380.9 836.301C1380.84 834.924 1380.39 833.496 1379.35 832.536C1378.31 831.58 1377.04 830.977 1375.6 830.977Z" fill="#B12030" fill-opacity="0.03"/>
<path d="M1422.02 830.977C1420.66 830.977 1419.23 831.571 1418.27 832.536C1417.35 833.46 1416.66 834.974 1416.72 836.301C1416.78 837.677 1417.23 839.105 1418.27 840.065C1419.31 841.021 1420.58 841.624 1422.02 841.624C1423.38 841.624 1424.81 841.03 1425.77 840.065C1426.69 839.142 1427.38 837.627 1427.32 836.301C1427.26 834.924 1426.81 833.496 1425.77 832.536C1424.73 831.58 1423.46 830.977 1422.02 830.977Z" fill="#B12030" fill-opacity="0.03"/>
<path d="M1445.62 871.672C1444.26 871.672 1442.83 872.266 1441.87 873.232C1440.95 874.155 1440.26 875.67 1440.32 876.996C1440.38 878.373 1440.83 879.801 1441.87 880.76C1442.91 881.716 1444.18 882.319 1445.62 882.319C1446.98 882.319 1448.41 881.726 1449.37 880.76C1450.29 879.837 1450.98 878.322 1450.92 876.996C1450.86 875.619 1450.41 874.191 1449.37 873.232C1448.33 872.275 1447.06 871.672 1445.62 871.672Z" fill="#B12030" fill-opacity="0.03"/>
</g>
<mask id="mask42_62_302" style="mask-type:luminance" maskUnits="userSpaceOnUse" x="139" y="392" width="1374" height="489">
<path d="M139 881H1513V392H139V881Z" fill="white"/>
</mask>
<g mask="url(#mask42_62_302)">
<path d="M1418.58 615.44C1417.22 615.44 1415.79 616.033 1414.83 616.999C1413.91 617.922 1413.22 619.437 1413.28 620.763C1413.34 622.14 1413.79 623.568 1414.83 624.527C1415.87 625.483 1417.14 626.086 1418.58 626.086C1419.94 626.086 1421.37 625.493 1422.33 624.527C1423.25 623.604 1423.94 622.089 1423.88 620.763C1423.82 619.386 1423.37 617.958 1422.33 616.999C1421.29 616.042 1420.02 615.44 1418.58 615.44Z" fill="#B12030" fill-opacity="0.03"/>
<path d="M1445.26 667.145H1498.6L1525.28 620.763L1498.6 574.382H1445.26L1418.58 620.763L1445.26 667.145Z" stroke="#B12030" stroke-opacity="0.03" stroke-width="10" stroke-miterlimit="10"/>
<path d="M1445.48 661.82C1444.12 661.82 1442.7 662.414 1441.73 663.379C1440.81 664.302 1440.12 665.817 1440.18 667.143C1440.24 668.52 1440.69 669.948 1441.73 670.908C1442.77 671.864 1444.05 672.467 1445.48 672.467C1446.84 672.467 1448.27 671.873 1449.23 670.908C1450.15 669.984 1450.85 668.47 1450.79 667.143C1450.72 665.767 1450.27 664.339 1449.23 663.379C1448.2 662.423 1446.92 661.82 1445.48 661.82Z" fill="#B12030" fill-opacity="0.03"/>
<path d="M1445.48 569.057C1444.12 569.057 1442.7 569.651 1441.73 570.616C1440.81 571.54 1440.12 573.054 1440.18 574.381C1440.24 575.757 1440.69 577.185 1441.73 578.145C1442.77 579.101 1444.05 579.704 1445.48 579.704C1446.84 579.704 1448.27 579.11 1449.23 578.145C1450.15 577.222 1450.85 575.707 1450.79 574.381C1450.72 573.004 1450.27 571.576 1449.23 570.616C1448.2 569.661 1446.92 569.057 1445.48 569.057Z" fill="#B12030" fill-opacity="0.03"/>
<path d="M1498.38 661.82C1497.02 661.82 1495.59 662.414 1494.63 663.379C1493.71 664.302 1493.02 665.817 1493.08 667.143C1493.14 668.52 1493.59 669.948 1494.63 670.908C1495.67 671.864 1496.94 672.467 1498.38 672.467C1499.74 672.467 1501.17 671.873 1502.13 670.908C1503.05 669.984 1503.74 668.47 1503.68 667.143C1503.62 665.767 1503.17 664.339 1502.13 663.379C1501.09 662.423 1499.82 661.82 1498.38 661.82Z" fill="#B12030" fill-opacity="0.03"/>
<path d="M1498.38 569.057C1497.02 569.057 1495.59 569.651 1494.63 570.616C1493.71 571.54 1493.02 573.054 1493.08 574.381C1493.14 575.757 1493.59 577.185 1494.63 578.145C1495.67 579.101 1496.94 579.704 1498.38 579.704C1499.74 579.704 1501.17 579.11 1502.13 578.145C1503.05 577.222 1503.74 575.707 1503.68 574.381C1503.62 573.004 1503.17 571.576 1502.13 570.616C1501.09 569.661 1499.82 569.057 1498.38 569.057Z" fill="#B12030" fill-opacity="0.03"/>
</g>
<mask id="mask43_62_302" style="mask-type:luminance" maskUnits="userSpaceOnUse" x="139" y="392" width="1374" height="489">
<path d="M139 881H1513V392H139V881Z" fill="white"/>
</mask>
<g mask="url(#mask43_62_302)">
<path d="M1340.92 558.672C1339.25 558.672 1337.66 560.142 1337.74 561.866C1337.81 563.597 1339.13 565.061 1340.92 565.061C1342.58 565.061 1344.18 563.591 1344.1 561.866C1344.02 560.136 1342.7 558.672 1340.92 558.672Z" fill="#B12030" fill-opacity="0.03"/>
<path d="M1354.14 584.862H1380.59L1393.82 561.867L1380.59 538.873H1354.14L1340.92 561.867L1354.14 584.862Z" stroke="#B12030" stroke-opacity="0.03" stroke-width="6" stroke-miterlimit="10"/>
<path d="M1354.26 581.669C1352.59 581.669 1351 583.138 1351.07 584.863C1351.15 586.593 1352.47 588.057 1354.26 588.057C1355.92 588.057 1357.52 586.587 1357.44 584.863C1357.36 583.132 1356.04 581.669 1354.26 581.669Z" fill="#B12030" fill-opacity="0.03"/>
<path d="M1354.26 535.679C1352.59 535.679 1351 537.149 1351.07 538.873C1351.15 540.604 1352.47 542.067 1354.26 542.067C1355.92 542.067 1357.52 540.598 1357.44 538.873C1357.36 537.143 1356.04 535.679 1354.26 535.679Z" fill="#B12030" fill-opacity="0.03"/>
<path d="M1380.48 581.669C1378.82 581.669 1377.22 583.138 1377.3 584.863C1377.38 586.593 1378.7 588.057 1380.48 588.057C1382.15 588.057 1383.74 586.587 1383.66 584.863C1383.59 583.132 1382.26 581.669 1380.48 581.669Z" fill="#B12030" fill-opacity="0.03"/>
<path d="M1380.48 535.679C1378.82 535.679 1377.22 537.149 1377.3 538.873C1377.38 540.604 1378.7 542.067 1380.48 542.067C1382.15 542.067 1383.74 540.598 1383.66 538.873C1383.59 537.143 1382.26 535.679 1380.48 535.679Z" fill="#B12030" fill-opacity="0.03"/>
<path d="M1393.81 558.672C1392.15 558.672 1390.55 560.142 1390.63 561.866C1390.71 563.597 1392.03 565.061 1393.81 565.061C1395.48 565.061 1397.07 563.591 1396.99 561.866C1396.92 560.136 1395.6 558.672 1393.81 558.672Z" fill="#B12030" fill-opacity="0.03"/>
</g>
<mask id="mask44_62_302" style="mask-type:luminance" maskUnits="userSpaceOnUse" x="139" y="392" width="1374" height="489">
<path d="M139 881H1513V392H139V881Z" fill="white"/>
</mask>
<g mask="url(#mask44_62_302)">
<path d="M1245.82 753.329C1244.16 753.329 1242.56 754.798 1242.64 756.523C1242.72 758.253 1244.04 759.717 1245.82 759.717C1247.49 759.717 1249.08 758.248 1249 756.523C1248.93 754.792 1247.61 753.329 1245.82 753.329Z" fill="#B12030" fill-opacity="0.03"/>
<path d="M1259.05 779.514H1285.49L1298.72 756.519L1285.49 733.525H1259.05L1245.82 756.519L1259.05 779.514Z" stroke="#B12030" stroke-opacity="0.03" stroke-width="6" stroke-miterlimit="10"/>
<path d="M1259.16 776.319C1257.5 776.319 1255.9 777.789 1255.98 779.513C1256.06 781.244 1257.38 782.708 1259.16 782.708C1260.83 782.708 1262.42 781.238 1262.34 779.513C1262.27 777.783 1260.94 776.319 1259.16 776.319Z" fill="#B12030" fill-opacity="0.03"/>
<path d="M1259.16 730.331C1257.5 730.331 1255.9 731.8 1255.98 733.525C1256.06 735.255 1257.38 736.719 1259.16 736.719C1260.83 736.719 1262.42 735.249 1262.34 733.525C1262.27 731.794 1260.94 730.331 1259.16 730.331Z" fill="#B12030" fill-opacity="0.03"/>
<path d="M1285.39 776.319C1283.72 776.319 1282.13 777.789 1282.2 779.513C1282.28 781.244 1283.6 782.708 1285.39 782.708C1287.05 782.708 1288.64 781.238 1288.57 779.513C1288.49 777.783 1287.17 776.319 1285.39 776.319Z" fill="#B12030" fill-opacity="0.03"/>
<path d="M1285.39 730.331C1283.72 730.331 1282.13 731.8 1282.2 733.525C1282.28 735.255 1283.6 736.719 1285.39 736.719C1287.05 736.719 1288.64 735.249 1288.57 733.525C1288.49 731.794 1287.17 730.331 1285.39 730.331Z" fill="#B12030" fill-opacity="0.03"/>
<path d="M1298.72 753.329C1297.05 753.329 1295.46 754.798 1295.54 756.523C1295.61 758.253 1296.93 759.717 1298.72 759.717C1300.38 759.717 1301.98 758.248 1301.9 756.523C1301.82 754.792 1300.5 753.329 1298.72 753.329Z" fill="#B12030" fill-opacity="0.03"/>
</g>
<mask id="mask45_62_302" style="mask-type:luminance" maskUnits="userSpaceOnUse" x="139" y="392" width="1374" height="489">
<path d="M139 881H1513V392H139V881Z" fill="white"/>
</mask>
<g mask="url(#mask45_62_302)">
<path d="M1451.3 489.587C1450.47 489.587 1449.68 490.321 1449.71 491.184C1449.75 492.049 1450.41 492.781 1451.3 492.781C1452.14 492.781 1452.93 492.046 1452.9 491.184C1452.86 490.318 1452.2 489.587 1451.3 489.587Z" fill="#B12030" fill-opacity="0.03"/>
<path d="M1457.4 501.787H1469.6L1475.69 491.185L1469.6 480.583H1457.4L1451.3 491.185L1457.4 501.787Z" stroke="#B12030" stroke-opacity="0.03" stroke-width="3" stroke-miterlimit="10"/>
<path d="M1457.45 500.188C1456.62 500.188 1455.83 500.923 1455.86 501.785C1455.9 502.651 1456.56 503.382 1457.45 503.382C1458.29 503.382 1459.08 502.648 1459.05 501.785C1459.01 500.92 1458.35 500.188 1457.45 500.188Z" fill="#B12030" fill-opacity="0.03"/>
<path d="M1457.45 478.985C1456.62 478.985 1455.83 479.72 1455.86 480.582C1455.9 481.447 1456.56 482.179 1457.45 482.179C1458.29 482.179 1459.08 481.445 1459.05 480.582C1459.01 479.717 1458.35 478.985 1457.45 478.985Z" fill="#B12030" fill-opacity="0.03"/>
<path d="M1469.55 500.188C1468.72 500.188 1467.92 500.923 1467.96 501.785C1468 502.651 1468.66 503.382 1469.55 503.382C1470.38 503.382 1471.18 502.648 1471.14 501.785C1471.1 500.92 1470.44 500.188 1469.55 500.188Z" fill="#B12030" fill-opacity="0.03"/>
<path d="M1469.55 478.985C1468.72 478.985 1467.92 479.72 1467.96 480.582C1468 481.447 1468.66 482.179 1469.55 482.179C1470.38 482.179 1471.18 481.445 1471.14 480.582C1471.1 479.717 1470.44 478.985 1469.55 478.985Z" fill="#B12030" fill-opacity="0.03"/>
<path d="M1475.69 489.587C1474.86 489.587 1474.06 490.321 1474.1 491.184C1474.14 492.049 1474.8 492.781 1475.69 492.781C1476.52 492.781 1477.32 492.046 1477.28 491.184C1477.24 490.318 1476.58 489.587 1475.69 489.587Z" fill="#B12030" fill-opacity="0.03"/>
</g>
<mask id="mask46_62_302" style="mask-type:luminance" maskUnits="userSpaceOnUse" x="139" y="392" width="1374" height="489">
<path d="M139 881H1513V392H139V881Z" fill="white"/>
</mask>
<g mask="url(#mask46_62_302)">
<path d="M1259.19 877.418C1257.53 877.418 1255.93 878.887 1256.01 880.612C1256.09 882.343 1257.41 883.806 1259.19 883.806C1260.85 883.806 1262.45 882.337 1262.37 880.612C1262.29 878.882 1260.97 877.418 1259.19 877.418Z" fill="#B12030" fill-opacity="0.03"/>
<path d="M1273.76 905.936H1302.89L1317.45 880.61L1302.89 855.285H1273.76L1259.19 880.61L1273.76 905.936Z" stroke="#B12030" stroke-opacity="0.03" stroke-width="6" stroke-miterlimit="10"/>
<path d="M1273.88 852.094C1272.22 852.094 1270.62 853.564 1270.7 855.288C1270.78 857.019 1272.1 858.482 1273.88 858.482C1275.55 858.482 1277.14 857.013 1277.07 855.288C1276.99 853.558 1275.67 852.094 1273.88 852.094Z" fill="#B12030" fill-opacity="0.03"/>
<path d="M1302.77 852.094C1301.1 852.094 1299.51 853.564 1299.58 855.288C1299.66 857.019 1300.98 858.482 1302.77 858.482C1304.43 858.482 1306.02 857.013 1305.95 855.288C1305.87 853.558 1304.55 852.094 1302.77 852.094Z" fill="#B12030" fill-opacity="0.03"/>
<path d="M1317.45 877.417C1315.79 877.417 1314.19 878.886 1314.27 880.611C1314.35 882.342 1315.67 883.805 1317.45 883.805C1319.12 883.805 1320.71 882.336 1320.63 880.611C1320.56 878.881 1319.24 877.417 1317.45 877.417Z" fill="#B12030" fill-opacity="0.03"/>
</g>
<mask id="mask47_62_302" style="mask-type:luminance" maskUnits="userSpaceOnUse" x="139" y="392" width="1374" height="489">
<path d="M139 881H1513V392H139V881Z" fill="white"/>
</mask>
<g mask="url(#mask47_62_302)">
<path d="M1441.1 706.8H1470.54L1485.26 681.207L1470.54 655.614H1441.1L1426.38 681.207L1441.1 706.8Z" stroke="#B12030" stroke-opacity="0.03" stroke-width="6" stroke-miterlimit="10"/>
<path d="M1441.23 703.607C1439.56 703.607 1437.97 705.076 1438.05 706.801C1438.12 708.532 1439.44 709.995 1441.23 709.995C1442.89 709.995 1444.49 708.526 1444.41 706.801C1444.33 705.071 1443.01 703.607 1441.23 703.607Z" fill="#B12030" fill-opacity="0.03"/>
<path d="M1441.23 652.419C1439.56 652.419 1437.97 653.887 1438.05 655.613C1438.12 657.343 1439.44 658.807 1441.23 658.807C1442.89 658.807 1444.49 657.337 1444.41 655.613C1444.33 653.882 1443.01 652.419 1441.23 652.419Z" fill="#B12030" fill-opacity="0.03"/>
<path d="M1426.39 678.015C1424.72 678.015 1423.13 679.484 1423.2 681.209C1423.28 682.94 1424.6 684.403 1426.39 684.403C1428.05 684.403 1429.64 682.934 1429.57 681.209C1429.49 679.479 1428.17 678.015 1426.39 678.015Z" fill="#B12030" fill-opacity="0.03"/>
<path d="M1470.41 703.607C1468.75 703.607 1467.15 705.076 1467.23 706.801C1467.31 708.532 1468.63 709.995 1470.41 709.995C1472.08 709.995 1473.67 708.526 1473.59 706.801C1473.52 705.071 1472.2 703.607 1470.41 703.607Z" fill="#B12030" fill-opacity="0.03"/>
<path d="M1470.41 652.419C1468.75 652.419 1467.15 653.887 1467.23 655.613C1467.31 657.343 1468.63 658.807 1470.41 658.807C1472.08 658.807 1473.67 657.337 1473.59 655.613C1473.52 653.882 1472.2 652.419 1470.41 652.419Z" fill="#B12030" fill-opacity="0.03"/>
<path d="M1485.25 678.015C1483.59 678.015 1482 679.484 1482.07 681.209C1482.15 682.94 1483.47 684.403 1485.25 684.403C1486.92 684.403 1488.51 682.934 1488.44 681.209C1488.36 679.479 1487.04 678.015 1485.25 678.015Z" fill="#B12030" fill-opacity="0.03"/>
<path d="M1351.55 616.624C1350.72 616.624 1349.92 617.358 1349.96 618.221C1350 619.086 1350.66 619.818 1351.55 619.818C1352.38 619.818 1353.18 619.083 1353.14 618.221C1353.1 617.356 1352.44 616.624 1351.55 616.624Z" fill="#B12030" fill-opacity="0.03"/>
<path d="M1376.77 662.065H1427.19L1452.41 618.224L1427.19 574.383H1376.77L1351.55 618.224L1376.77 662.065Z" stroke="#B12030" stroke-opacity="0.03" stroke-width="3" stroke-miterlimit="10"/>
<path d="M1376.98 660.466C1376.15 660.466 1375.35 661.201 1375.39 662.063C1375.43 662.928 1376.09 663.66 1376.98 663.66C1377.81 663.66 1378.61 662.926 1378.57 662.063C1378.53 661.198 1377.87 660.466 1376.98 660.466Z" fill="#B12030" fill-opacity="0.03"/>
<path d="M1376.98 572.787C1376.15 572.787 1375.35 573.522 1375.39 574.384C1375.43 575.25 1376.09 575.981 1376.98 575.981C1377.81 575.981 1378.61 575.247 1378.57 574.384C1378.53 573.519 1377.87 572.787 1376.98 572.787Z" fill="#B12030" fill-opacity="0.03"/>
<path d="M1426.98 660.466C1426.15 660.466 1425.35 661.201 1425.39 662.063C1425.43 662.928 1426.09 663.66 1426.98 663.66C1427.81 663.66 1428.61 662.926 1428.57 662.063C1428.53 661.198 1427.87 660.466 1426.98 660.466Z" fill="#B12030" fill-opacity="0.03"/>
<path d="M1426.98 572.787C1426.15 572.787 1425.35 573.522 1425.39 574.384C1425.43 575.25 1426.09 575.981 1426.98 575.981C1427.81 575.981 1428.61 575.247 1428.57 574.384C1428.53 573.519 1427.87 572.787 1426.98 572.787Z" fill="#B12030" fill-opacity="0.03"/>
<path d="M1452.41 616.624C1451.58 616.624 1450.78 617.358 1450.82 618.221C1450.86 619.086 1451.52 619.818 1452.41 619.818C1453.24 619.818 1454.04 619.083 1454 618.221C1453.96 617.356 1453.3 616.624 1452.41 616.624Z" fill="#B12030" fill-opacity="0.03"/>
<path d="M1233.65 826.318C1232.84 826.318 1232.07 827.052 1232.11 827.915C1232.14 828.78 1232.78 829.512 1233.65 829.512C1234.46 829.512 1235.23 828.777 1235.2 827.915C1235.16 827.049 1234.52 826.318 1233.65 826.318Z" fill="#B12030" fill-opacity="0.03"/>
<path d="M1240.62 840.396H1254.57L1261.54 827.917L1254.57 815.439H1240.62L1233.65 827.917L1240.62 840.396Z" stroke="#B12030" stroke-opacity="0.03" stroke-width="3" stroke-miterlimit="10"/>
<path d="M1240.68 838.799C1239.87 838.799 1239.1 839.534 1239.14 840.396C1239.17 841.261 1239.81 841.993 1240.68 841.993C1241.49 841.993 1242.26 841.259 1242.23 840.396C1242.19 839.531 1241.55 838.799 1240.68 838.799Z" fill="#B12030" fill-opacity="0.03"/>
<path d="M1240.68 813.84C1239.87 813.84 1239.1 814.574 1239.14 815.437C1239.17 816.302 1239.81 817.034 1240.68 817.034C1241.49 817.034 1242.26 816.299 1242.23 815.437C1242.19 814.571 1241.55 813.84 1240.68 813.84Z" fill="#B12030" fill-opacity="0.03"/>
<path d="M1254.51 838.799C1253.7 838.799 1252.93 839.534 1252.96 840.396C1253 841.261 1253.64 841.993 1254.51 841.993C1255.32 841.993 1256.09 841.259 1256.05 840.396C1256.02 839.531 1255.38 838.799 1254.51 838.799Z" fill="#B12030" fill-opacity="0.03"/>
<path d="M1254.51 813.84C1253.7 813.84 1252.93 814.574 1252.96 815.437C1253 816.302 1253.64 817.034 1254.51 817.034C1255.32 817.034 1256.09 816.299 1256.05 815.437C1256.02 814.571 1255.38 813.84 1254.51 813.84Z" fill="#B12030" fill-opacity="0.03"/>
<path d="M1261.54 826.319C1260.73 826.319 1259.95 827.053 1259.99 827.916C1260.03 828.781 1260.67 829.513 1261.54 829.513C1262.35 829.513 1263.12 828.778 1263.08 827.916C1263.04 827.05 1262.4 826.319 1261.54 826.319Z" fill="#B12030" fill-opacity="0.03"/>
</g>
<mask id="mask48_62_302" style="mask-type:luminance" maskUnits="userSpaceOnUse" x="0" y="392" width="1372" height="489">
<path d="M1372 881H0V392H1372V881Z" fill="white"/>
</mask>
<g mask="url(#mask48_62_302)">
</g>
<mask id="mask49_62_302" style="mask-type:luminance" maskUnits="userSpaceOnUse" x="0" y="392" width="1372" height="489">
<path d="M1372 881H0V392H1372V881Z" fill="white"/>
</mask>
<g mask="url(#mask49_62_302)">
<path d="M122.009 676.542H81.6324L61.4437 641.255L81.6324 605.968H122.009L142.198 641.255L122.009 676.542Z" fill="#DB0000" fill-opacity="0.04"/>
</g>
<mask id="mask50_62_302" style="mask-type:luminance" maskUnits="userSpaceOnUse" x="0" y="392" width="1372" height="489">
<path d="M1372 881H0V392H1372V881Z" fill="white"/>
</mask>
<g mask="url(#mask50_62_302)">
<path d="M167.981 828.069H135.874L119.82 800.566L135.874 773.063H167.981L184.035 800.566L167.981 828.069Z" fill="#DB0000" fill-opacity="0.04"/>
</g>
<mask id="mask51_62_302" style="mask-type:luminance" maskUnits="userSpaceOnUse" x="0" y="392" width="1372" height="489">
<path d="M1372 881H0V392H1372V881Z" fill="white"/>
</mask>
<g mask="url(#mask51_62_302)">
<path d="M37.8497 546.81H15.9584L5.01294 527.61L15.9584 508.409H37.8497L48.7955 527.61L37.8497 546.81Z" fill="#DB0000" fill-opacity="0.04"/>
</g>
<mask id="mask52_62_302" style="mask-type:luminance" maskUnits="userSpaceOnUse" x="0" y="392" width="1372" height="489">
<path d="M1372 881H0V392H1372V881Z" fill="white"/>
</mask>
<g mask="url(#mask52_62_302)">
<path d="M146.819 593.514H124.929L113.983 574.313L124.929 555.113H146.819L157.765 574.313L146.819 593.514Z" fill="#DB0000" fill-opacity="0.04"/>
</g>
<mask id="mask53_62_302" style="mask-type:luminance" maskUnits="userSpaceOnUse" x="0" y="392" width="1372" height="489">
<path d="M1372 881H0V392H1372V881Z" fill="white"/>
</mask>
<g mask="url(#mask53_62_302)">
<path d="M53.1735 824.956H1.60748L-24.1754 779.809L1.60748 734.662H53.1735L78.9568 779.809L53.1735 824.956Z" fill="#DB0000" fill-opacity="0.04"/>
</g>
<mask id="mask54_62_302" style="mask-type:luminance" maskUnits="userSpaceOnUse" x="0" y="392" width="1372" height="489">
<path d="M1372 881H0V392H1372V881Z" fill="white"/>
</mask>
<g mask="url(#mask54_62_302)">
<path d="M93.0646 930.817H41.4985L15.7153 885.67L41.4985 840.523H93.0646L118.847 885.67L93.0646 930.817Z" fill="#DB0000" fill-opacity="0.04"/>
</g>
<mask id="mask55_62_302" style="mask-type:luminance" maskUnits="userSpaceOnUse" x="0" y="392" width="1372" height="489">
<path d="M1372 881H0V392H1372V881Z" fill="white"/>
</mask>
<g mask="url(#mask55_62_302)">
<path d="M13.8865 912.652H-59.7068L-96.5032 848.578L-59.7068 784.504H13.8865L50.6833 848.578L13.8865 912.652Z" stroke="#B12030" stroke-opacity="0.03" stroke-width="10" stroke-miterlimit="10"/>
<path d="M13.5772 779.179C14.9348 779.179 16.361 779.773 17.3215 780.738C18.24 781.661 18.9316 783.176 18.8723 784.502C18.8109 785.879 18.3611 787.307 17.3215 788.267C16.2854 789.223 15.0121 789.826 13.5772 789.826C12.2195 789.826 10.793 789.232 9.83281 788.267C8.91429 787.343 8.22274 785.828 8.28205 784.502C8.34347 783.126 8.79321 781.697 9.83281 780.738C10.8689 779.782 12.1422 779.179 13.5772 779.179Z" fill="#B12030" fill-opacity="0.03"/>
<path d="M50.6848 843.254C52.0424 843.254 53.4686 843.848 54.4291 844.813C55.3476 845.736 56.0392 847.251 55.9799 848.577C55.9185 849.954 55.4687 851.382 54.4291 852.342C53.393 853.298 52.1197 853.901 50.6848 853.901C49.3271 853.901 47.9006 853.307 46.9404 852.342C46.0219 851.418 45.3303 849.904 45.3897 848.577C45.4511 847.201 45.9008 845.773 46.9404 844.813C47.9765 843.857 49.2498 843.254 50.6848 843.254Z" fill="#B12030" fill-opacity="0.03"/>
</g>
<mask id="mask56_62_302" style="mask-type:luminance" maskUnits="userSpaceOnUse" x="0" y="392" width="1372" height="489">
<path d="M1372 881H0V392H1372V881Z" fill="white"/>
</mask>
<g mask="url(#mask56_62_302)">
<path d="M100.724 751.201C102.081 751.201 103.507 751.795 104.468 752.76C105.386 753.684 106.078 755.198 106.019 756.525C105.957 757.901 105.508 759.329 104.468 760.289C103.432 761.245 102.159 761.848 100.724 761.848C99.3659 761.848 97.9394 761.254 96.9792 760.289C96.0607 759.366 95.3692 757.851 95.4285 756.525C95.4899 755.148 95.9396 753.72 96.9792 752.76C98.0153 751.804 99.2886 751.201 100.724 751.201Z" fill="#B12030" fill-opacity="0.03"/>
<path d="M63.9267 820.6H-9.66656L-46.463 756.525L-9.66656 692.45H63.9267L100.724 756.525L63.9267 820.6Z" stroke="#B12030" stroke-opacity="0.03" stroke-width="10" stroke-miterlimit="10"/>
<path d="M63.6154 815.277C64.973 815.277 66.3992 815.871 67.3597 816.836C68.2782 817.759 68.9698 819.274 68.9105 820.6C68.8491 821.977 68.3993 823.405 67.3597 824.365C66.3236 825.321 65.0503 825.924 63.6154 825.924C62.2577 825.924 60.8316 825.33 59.871 824.365C58.9525 823.441 58.261 821.927 58.3203 820.6C58.3817 819.224 58.8314 817.796 59.871 816.836C60.9071 815.88 62.1807 815.277 63.6154 815.277Z" fill="#B12030" fill-opacity="0.03"/>
<path d="M63.6154 687.126C64.973 687.126 66.3992 687.72 67.3597 688.685C68.2782 689.609 68.9698 691.123 68.9105 692.45C68.8491 693.826 68.3993 695.254 67.3597 696.214C66.3236 697.17 65.0503 697.773 63.6154 697.773C62.2577 697.773 60.8316 697.179 59.871 696.214C58.9525 695.29 58.261 693.776 58.3203 692.45C58.3817 691.073 58.8314 689.645 59.871 688.685C60.9071 687.729 62.1807 687.126 63.6154 687.126Z" fill="#B12030" fill-opacity="0.03"/>
</g>
<mask id="mask57_62_302" style="mask-type:luminance" maskUnits="userSpaceOnUse" x="0" y="392" width="1372" height="489">
<path d="M1372 881H0V392H1372V881Z" fill="white"/>
</mask>
<g mask="url(#mask57_62_302)">
<path d="M160.764 871.672C162.122 871.672 163.548 872.266 164.508 873.232C165.427 874.155 166.119 875.67 166.059 876.996C165.998 878.373 165.548 879.801 164.508 880.76C163.472 881.716 162.199 882.319 160.764 882.319C159.406 882.319 157.98 881.726 157.02 880.76C156.101 879.837 155.41 878.322 155.469 876.996C155.53 875.619 155.98 874.191 157.02 873.232C158.056 872.275 159.329 871.672 160.764 871.672Z" fill="#B12030" fill-opacity="0.03"/>
<path d="M137.394 917.697H90.6504L67.2789 876.999L90.6504 836.301H137.394L160.766 876.999L137.394 917.697Z" stroke="#B12030" stroke-opacity="0.03" stroke-width="10" stroke-miterlimit="10"/>
<path d="M137.201 830.977C138.558 830.977 139.985 831.571 140.945 832.536C141.863 833.46 142.555 834.974 142.496 836.301C142.434 837.677 141.985 839.105 140.945 840.065C139.909 841.021 138.636 841.624 137.201 841.624C135.843 841.624 134.417 841.03 133.456 840.065C132.538 839.142 131.846 837.627 131.905 836.301C131.967 834.924 132.417 833.496 133.456 832.536C134.492 831.58 135.766 830.977 137.201 830.977Z" fill="#B12030" fill-opacity="0.03"/>
<path d="M90.8472 830.977C92.2048 830.977 93.631 831.571 94.5915 832.536C95.5101 833.46 96.2016 834.974 96.1423 836.301C96.0809 837.677 95.6311 839.105 94.5915 840.065C93.5555 841.021 92.2822 841.624 90.8472 841.624C89.4895 841.624 88.063 841.03 87.1028 840.065C86.1843 839.142 85.4928 837.627 85.5521 836.301C85.6135 834.924 86.0632 833.496 87.1028 832.536C88.1389 831.58 89.4126 830.977 90.8472 830.977Z" fill="#B12030" fill-opacity="0.03"/>
<path d="M67.2821 871.672C68.6397 871.672 70.0659 872.266 71.0264 873.232C71.9449 874.155 72.6365 875.67 72.5772 876.996C72.5157 878.373 72.066 879.801 71.0264 880.76C69.9903 881.716 68.717 882.319 67.2821 882.319C65.9244 882.319 64.4982 881.726 63.5377 880.76C62.6192 879.837 61.9276 878.322 61.9869 876.996C62.0484 875.619 62.4981 874.191 63.5377 873.232C64.5738 872.275 65.8471 871.672 67.2821 871.672Z" fill="#B12030" fill-opacity="0.03"/>
</g>
<mask id="mask58_62_302" style="mask-type:luminance" maskUnits="userSpaceOnUse" x="0" y="392" width="1372" height="489">
<path d="M1372 881H0V392H1372V881Z" fill="white"/>
</mask>
<g mask="url(#mask58_62_302)">
<path d="M94.2806 615.44C95.6383 615.44 97.0648 616.033 98.025 616.999C98.9435 617.922 99.6351 619.437 99.5758 620.763C99.5143 622.14 99.0646 623.568 98.025 624.527C96.9889 625.483 95.7156 626.086 94.2806 626.086C92.923 626.086 91.4968 625.493 90.5363 624.527C89.6178 623.604 88.9262 622.089 88.9855 620.763C89.047 619.386 89.4967 617.958 90.5363 616.999C91.5727 616.042 92.846 615.44 94.2806 615.44Z" fill="#B12030" fill-opacity="0.03"/>
<path d="M67.6452 667.145H14.3743L-12.2616 620.763L14.3743 574.382H67.6452L94.2807 620.763L67.6452 667.145Z" stroke="#B12030" stroke-opacity="0.03" stroke-width="10" stroke-miterlimit="10"/>
<path d="M67.4185 661.82C68.7761 661.82 70.2023 662.414 71.1628 663.379C72.0813 664.302 72.7729 665.817 72.7136 667.143C72.6522 668.52 72.2024 669.948 71.1628 670.908C70.1267 671.864 68.8534 672.467 67.4185 672.467C66.0608 672.467 64.6347 671.873 63.6741 670.908C62.7556 669.984 62.0641 668.47 62.1234 667.143C62.1848 665.767 62.6345 664.339 63.6741 663.379C64.7102 662.423 65.9838 661.82 67.4185 661.82Z" fill="#B12030" fill-opacity="0.03"/>
<path d="M67.4185 569.057C68.7761 569.057 70.2023 569.651 71.1628 570.616C72.0813 571.54 72.7729 573.054 72.7136 574.381C72.6522 575.757 72.2024 577.185 71.1628 578.145C70.1267 579.101 68.8534 579.704 67.4185 579.704C66.0608 579.704 64.6347 579.11 63.6741 578.145C62.7556 577.222 62.0641 575.707 62.1234 574.381C62.1848 573.004 62.6345 571.576 63.6741 570.616C64.7102 569.661 65.9838 569.057 67.4185 569.057Z" fill="#B12030" fill-opacity="0.03"/>
<path d="M14.5971 661.82C15.9547 661.82 17.3809 662.414 18.3414 663.379C19.2599 664.302 19.9515 665.817 19.8922 667.143C19.8308 668.52 19.381 669.948 18.3414 670.908C17.3053 671.864 16.032 672.467 14.5971 672.467C13.2394 672.467 11.8132 671.873 10.8527 670.908C9.93418 669.984 9.24264 668.47 9.30195 667.143C9.36337 665.767 9.8131 664.339 10.8527 663.379C11.8888 662.423 13.1621 661.82 14.5971 661.82Z" fill="#B12030" fill-opacity="0.03"/>
<path d="M14.5971 569.057C15.9547 569.057 17.3809 569.651 18.3414 570.616C19.2599 571.54 19.9515 573.054 19.8922 574.381C19.8308 575.757 19.381 577.185 18.3414 578.145C17.3053 579.101 16.032 579.704 14.5971 579.704C13.2394 579.704 11.8132 579.11 10.8527 578.145C9.93418 577.222 9.24264 575.707 9.30195 574.381C9.36337 573.004 9.8131 571.576 10.8527 570.616C11.8888 569.661 13.1621 569.057 14.5971 569.057Z" fill="#B12030" fill-opacity="0.03"/>
</g>
<mask id="mask59_62_302" style="mask-type:luminance" maskUnits="userSpaceOnUse" x="0" y="392" width="1372" height="489">
<path d="M1372 881H0V392H1372V881Z" fill="white"/>
</mask>
<g mask="url(#mask59_62_302)">
<path d="M171.832 558.672C173.494 558.672 175.086 560.142 175.009 561.866C174.932 563.597 173.613 565.061 171.832 565.061C170.17 565.061 168.578 563.591 168.655 561.866C168.732 560.136 170.051 558.672 171.832 558.672Z" fill="#B12030" fill-opacity="0.03"/>
<path d="M158.627 584.862H132.216L119.011 561.867L132.216 538.873H158.627L171.832 561.867L158.627 584.862Z" stroke="#B12030" stroke-opacity="0.03" stroke-width="6" stroke-miterlimit="10"/>
<path d="M158.512 581.669C160.174 581.669 161.766 583.138 161.689 584.863C161.613 586.593 160.294 588.057 158.512 588.057C156.85 588.057 155.258 586.587 155.335 584.863C155.412 583.132 156.731 581.669 158.512 581.669Z" fill="#B12030" fill-opacity="0.03"/>
<path d="M158.512 535.679C160.174 535.679 161.766 537.149 161.689 538.873C161.613 540.604 160.294 542.067 158.512 542.067C156.85 542.067 155.258 540.598 155.335 538.873C155.412 537.143 156.731 535.679 158.512 535.679Z" fill="#B12030" fill-opacity="0.03"/>
<path d="M132.326 581.669C133.988 581.669 135.58 583.138 135.503 584.863C135.426 586.593 134.108 588.057 132.326 588.057C130.664 588.057 129.072 586.587 129.149 584.863C129.226 583.132 130.545 581.669 132.326 581.669Z" fill="#B12030" fill-opacity="0.03"/>
<path d="M132.326 535.679C133.988 535.679 135.58 537.149 135.503 538.873C135.426 540.604 134.108 542.067 132.326 542.067C130.664 542.067 129.072 540.598 129.149 538.873C129.226 537.143 130.545 535.679 132.326 535.679Z" fill="#B12030" fill-opacity="0.03"/>
<path d="M119.013 558.672C120.675 558.672 122.267 560.142 122.19 561.866C122.113 563.597 120.795 565.061 119.013 565.061C117.351 565.061 115.759 563.591 115.836 561.866C115.914 560.136 117.232 558.672 119.013 558.672Z" fill="#B12030" fill-opacity="0.03"/>
</g>
<mask id="mask60_62_302" style="mask-type:luminance" maskUnits="userSpaceOnUse" x="0" y="392" width="1372" height="489">
<path d="M1372 881H0V392H1372V881Z" fill="white"/>
</mask>
<g mask="url(#mask60_62_302)">
<path d="M266.789 753.329C268.451 753.329 270.043 754.798 269.966 756.523C269.889 758.253 268.57 759.717 266.789 759.717C265.127 759.717 263.535 758.248 263.612 756.523C263.689 754.792 265.008 753.329 266.789 753.329Z" fill="#B12030" fill-opacity="0.03"/>
<path d="M253.585 779.514H227.174L213.969 756.519L227.174 733.525H253.585L266.79 756.519L253.585 779.514Z" stroke="#B12030" stroke-opacity="0.03" stroke-width="6" stroke-miterlimit="10"/>
<path d="M253.47 776.319C255.132 776.319 256.724 777.789 256.647 779.513C256.57 781.244 255.251 782.708 253.47 782.708C251.808 782.708 250.216 781.238 250.292 779.513C250.37 777.783 251.689 776.319 253.47 776.319Z" fill="#B12030" fill-opacity="0.03"/>
<path d="M253.47 730.331C255.132 730.331 256.724 731.8 256.647 733.525C256.57 735.255 255.251 736.719 253.47 736.719C251.808 736.719 250.216 735.249 250.292 733.525C250.37 731.794 251.689 730.331 253.47 730.331Z" fill="#B12030" fill-opacity="0.03"/>
<path d="M227.283 776.319C228.945 776.319 230.537 777.789 230.46 779.513C230.384 781.244 229.065 782.708 227.283 782.708C225.621 782.708 224.029 781.238 224.106 779.513C224.183 777.783 225.502 776.319 227.283 776.319Z" fill="#B12030" fill-opacity="0.03"/>
<path d="M227.283 730.331C228.945 730.331 230.537 731.8 230.46 733.525C230.384 735.255 229.065 736.719 227.283 736.719C225.621 736.719 224.029 735.249 224.106 733.525C224.183 731.794 225.502 730.331 227.283 730.331Z" fill="#B12030" fill-opacity="0.03"/>
<path d="M213.971 753.329C215.632 753.329 217.225 754.798 217.148 756.523C217.071 758.253 215.752 759.717 213.971 759.717C212.309 759.717 210.716 758.248 210.793 756.523C210.87 754.792 212.19 753.329 213.971 753.329Z" fill="#B12030" fill-opacity="0.03"/>
</g>
<mask id="mask61_62_302" style="mask-type:luminance" maskUnits="userSpaceOnUse" x="0" y="392" width="1372" height="489">
<path d="M1372 881H0V392H1372V881Z" fill="white"/>
</mask>
<g mask="url(#mask61_62_302)">
<path d="M61.6053 489.587C62.4363 489.587 63.2323 490.321 63.1939 491.184C63.1554 492.049 62.496 492.781 61.6053 492.781C60.7743 492.781 59.9783 492.046 60.0168 491.184C60.0553 490.318 60.7147 489.587 61.6053 489.587Z" fill="#B12030" fill-opacity="0.03"/>
<path d="M55.518 501.787H43.3413L37.253 491.185L43.3413 480.583H55.518L61.6066 491.185L55.518 501.787Z" stroke="#B12030" stroke-opacity="0.03" stroke-width="3" stroke-miterlimit="10"/>
<path d="M55.4644 500.188C56.2954 500.188 57.0914 500.923 57.0529 501.785C57.0144 502.651 56.355 503.382 55.4644 503.382C54.6334 503.382 53.8374 502.648 53.8759 501.785C53.9143 500.92 54.5737 500.188 55.4644 500.188Z" fill="#B12030" fill-opacity="0.03"/>
<path d="M55.4644 478.985C56.2954 478.985 57.0914 479.72 57.0529 480.582C57.0144 481.447 56.355 482.179 55.4644 482.179C54.6334 482.179 53.8374 481.445 53.8759 480.582C53.9143 479.717 54.5737 478.985 55.4644 478.985Z" fill="#B12030" fill-opacity="0.03"/>
<path d="M43.3886 500.188C44.2196 500.188 45.0157 500.923 44.9772 501.785C44.9387 502.651 44.2793 503.382 43.3886 503.382C42.5577 503.382 41.7616 502.648 41.8001 501.785C41.8386 500.92 42.498 500.188 43.3886 500.188Z" fill="#B12030" fill-opacity="0.03"/>
<path d="M43.3886 478.985C44.2196 478.985 45.0157 479.72 44.9772 480.582C44.9387 481.447 44.2793 482.179 43.3886 482.179C42.5577 482.179 41.7616 481.445 41.8001 480.582C41.8386 479.717 42.498 478.985 43.3886 478.985Z" fill="#B12030" fill-opacity="0.03"/>
<path d="M37.2544 489.587C38.0853 489.587 38.8814 490.321 38.8429 491.184C38.8044 492.049 38.145 492.781 37.2544 492.781C36.4234 492.781 35.6274 492.046 35.6658 491.184C35.7043 490.318 36.3637 489.587 37.2544 489.587Z" fill="#B12030" fill-opacity="0.03"/>
</g>
<mask id="mask62_62_302" style="mask-type:luminance" maskUnits="userSpaceOnUse" x="0" y="392" width="1372" height="489">
<path d="M1372 881H0V392H1372V881Z" fill="white"/>
</mask>
<g mask="url(#mask62_62_302)">
<path d="M253.441 877.418C255.103 877.418 256.695 878.887 256.618 880.612C256.541 882.343 255.222 883.806 253.441 883.806C251.779 883.806 250.187 882.337 250.264 880.612C250.341 878.882 251.659 877.418 253.441 877.418Z" fill="#B12030" fill-opacity="0.03"/>
<path d="M238.895 905.936H209.808L195.264 880.61L209.808 855.285H238.895L253.439 880.61L238.895 905.936Z" stroke="#B12030" stroke-opacity="0.03" stroke-width="6" stroke-miterlimit="10"/>
<path d="M238.768 852.094C240.43 852.094 242.023 853.564 241.946 855.288C241.869 857.019 240.549 858.482 238.768 858.482C237.107 858.482 235.514 857.013 235.591 855.288C235.669 853.558 236.988 852.094 238.768 852.094Z" fill="#B12030" fill-opacity="0.03"/>
<path d="M209.928 852.094C211.59 852.094 213.182 853.564 213.105 855.288C213.028 857.019 211.709 858.482 209.928 858.482C208.266 858.482 206.674 857.013 206.751 855.288C206.828 853.558 208.147 852.094 209.928 852.094Z" fill="#B12030" fill-opacity="0.03"/>
<path d="M195.264 877.417C196.926 877.417 198.518 878.886 198.441 880.611C198.364 882.342 197.045 883.805 195.264 883.805C193.602 883.805 192.01 882.336 192.087 880.611C192.164 878.881 193.483 877.417 195.264 877.417Z" fill="#B12030" fill-opacity="0.03"/>
</g>
<mask id="mask63_62_302" style="mask-type:luminance" maskUnits="userSpaceOnUse" x="0" y="392" width="1372" height="489">
<path d="M1372 881H0V392H1372V881Z" fill="white"/>
</mask>
<g mask="url(#mask63_62_302)">
<path d="M71.7951 706.8H42.4001L27.7026 681.207L42.4001 655.614H71.7951L86.4925 681.207L71.7951 706.8Z" stroke="#B12030" stroke-opacity="0.03" stroke-width="6" stroke-miterlimit="10"/>
<path d="M71.6677 703.607C73.3297 703.607 74.9218 705.076 74.8448 706.801C74.7678 708.532 73.449 709.995 71.6677 709.995C70.0058 709.995 68.4137 708.526 68.4907 706.801C68.5676 705.071 69.8864 703.607 71.6677 703.607Z" fill="#B12030" fill-opacity="0.03"/>
<path d="M71.6677 652.419C73.3297 652.419 74.9218 653.887 74.8448 655.613C74.7678 657.343 73.449 658.807 71.6677 658.807C70.0058 658.807 68.4137 657.337 68.4907 655.613C68.5676 653.882 69.8864 652.419 71.6677 652.419Z" fill="#B12030" fill-opacity="0.03"/>
<path d="M86.4883 678.015C88.1503 678.015 89.7424 679.484 89.6654 681.209C89.5885 682.94 88.2696 684.403 86.4883 684.403C84.8264 684.403 83.2343 682.934 83.3113 681.209C83.3882 679.479 84.7071 678.015 86.4883 678.015Z" fill="#B12030" fill-opacity="0.03"/>
<path d="M42.5254 703.607C44.1874 703.607 45.7794 705.076 45.7025 706.801C45.6255 708.532 44.3063 709.995 42.5254 709.995C40.8634 709.995 39.2714 708.526 39.3483 706.801C39.4253 705.071 40.7441 703.607 42.5254 703.607Z" fill="#B12030" fill-opacity="0.03"/>
<path d="M42.5254 652.419C44.1874 652.419 45.7794 653.887 45.7025 655.613C45.6255 657.343 44.3063 658.807 42.5254 658.807C40.8634 658.807 39.2714 657.337 39.3483 655.613C39.4253 653.882 40.7441 652.419 42.5254 652.419Z" fill="#B12030" fill-opacity="0.03"/>
<path d="M27.7048 678.015C29.3667 678.015 30.9588 679.484 30.8818 681.209C30.8049 682.94 29.4857 684.403 27.7048 684.403C26.0428 684.403 24.4507 682.934 24.5277 681.209C24.6047 679.479 25.9235 678.015 27.7048 678.015Z" fill="#B12030" fill-opacity="0.03"/>
<path d="M161.215 616.624C162.046 616.624 162.842 617.358 162.803 618.221C162.765 619.086 162.105 619.818 161.215 619.818C160.384 619.818 159.588 619.083 159.626 618.221C159.665 617.356 160.324 616.624 161.215 616.624Z" fill="#B12030" fill-opacity="0.03"/>
<path d="M136.036 662.065H85.6825L60.5056 618.224L85.6825 574.383H136.036L161.213 618.224L136.036 662.065Z" stroke="#B12030" stroke-opacity="0.03" stroke-width="3" stroke-miterlimit="10"/>
<path d="M135.823 660.466C136.654 660.466 137.45 661.201 137.411 662.063C137.373 662.928 136.713 663.66 135.823 663.66C134.992 663.66 134.196 662.926 134.234 662.063C134.273 661.198 134.932 660.466 135.823 660.466Z" fill="#B12030" fill-opacity="0.03"/>
<path d="M135.823 572.787C136.654 572.787 137.45 573.522 137.411 574.384C137.373 575.25 136.713 575.981 135.823 575.981C134.992 575.981 134.196 575.247 134.234 574.384C134.273 573.519 134.932 572.787 135.823 572.787Z" fill="#B12030" fill-opacity="0.03"/>
<path d="M85.8932 660.466C86.7242 660.466 87.5202 661.201 87.4818 662.063C87.4433 662.928 86.7839 663.66 85.8932 663.66C85.0622 663.66 84.2662 662.926 84.3047 662.063C84.3432 661.198 85.0026 660.466 85.8932 660.466Z" fill="#B12030" fill-opacity="0.03"/>
<path d="M85.8932 572.787C86.7242 572.787 87.5202 573.522 87.4818 574.384C87.4433 575.25 86.7839 575.981 85.8932 575.981C85.0622 575.981 84.2662 575.247 84.3047 574.384C84.3432 573.519 85.0026 572.787 85.8932 572.787Z" fill="#B12030" fill-opacity="0.03"/>
<path d="M60.5024 616.624C61.3334 616.624 62.1294 617.358 62.0909 618.221C62.0525 619.086 61.393 619.818 60.5024 619.818C59.6714 619.818 58.8754 619.083 58.9139 618.221C58.9524 617.356 59.6118 616.624 60.5024 616.624Z" fill="#B12030" fill-opacity="0.03"/>
<path d="M278.943 826.318C279.75 826.318 280.523 827.052 280.486 827.915C280.449 828.78 279.808 829.512 278.943 829.512C278.136 829.512 277.362 828.777 277.4 827.915C277.437 827.049 278.078 826.318 278.943 826.318Z" fill="#B12030" fill-opacity="0.03"/>
<path d="M271.981 840.396H258.058L251.097 827.917L258.058 815.439H271.981L278.943 827.917L271.981 840.396Z" stroke="#B12030" stroke-opacity="0.03" stroke-width="3" stroke-miterlimit="10"/>
<path d="M271.923 838.799C272.73 838.799 273.503 839.534 273.466 840.396C273.429 841.261 272.788 841.993 271.923 841.993C271.116 841.993 270.342 841.259 270.38 840.396C270.417 839.531 271.058 838.799 271.923 838.799Z" fill="#B12030" fill-opacity="0.03"/>
<path d="M271.923 813.84C272.73 813.84 273.503 814.574 273.466 815.437C273.429 816.302 272.788 817.034 271.923 817.034C271.116 817.034 270.342 816.299 270.38 815.437C270.417 814.571 271.058 813.84 271.923 813.84Z" fill="#B12030" fill-opacity="0.03"/>
<path d="M258.114 838.799C258.921 838.799 259.695 839.534 259.657 840.396C259.62 841.261 258.979 841.993 258.114 841.993C257.307 841.993 256.534 841.259 256.571 840.396C256.608 839.531 257.249 838.799 258.114 838.799Z" fill="#B12030" fill-opacity="0.03"/>
<path d="M258.114 813.84C258.921 813.84 259.695 814.574 259.657 815.437C259.62 816.302 258.979 817.034 258.114 817.034C257.307 817.034 256.534 816.299 256.571 815.437C256.608 814.571 257.249 813.84 258.114 813.84Z" fill="#B12030" fill-opacity="0.03"/>
<path d="M251.097 826.319C251.904 826.319 252.678 827.053 252.64 827.916C252.603 828.781 251.962 829.513 251.097 829.513C250.29 829.513 249.517 828.778 249.554 827.916C249.591 827.05 250.232 826.319 251.097 826.319Z" fill="#B12030" fill-opacity="0.03"/>
</g>
</svg>
